<?xml version="1.0" standalone="no"?>
<!DOCTYPE svg PUBLIC "-//W3C//DTD SVG 20010904//EN"
 "http://www.w3.org/TR/2001/REC-SVG-20010904/DTD/svg10.dtd">
<svg version="1.0" xmlns="http://www.w3.org/2000/svg"
 width="883.000000pt" height="883.000000pt" viewBox="0 0 883.000000 883.000000"
 preserveAspectRatio="xMidYMid meet">
<metadata>
Created by potrace 1.14, written by Peter Selinger 2001-2017
</metadata>
<g transform="translate(0.000000,883.000000) scale(0.100000,-0.100000)"
fill="#000000" stroke="none">
<path d="M4757 8502 c-7 -9 -21 -12 -40 -8 -23 5 -30 2 -34 -14 -6 -24 -28
-26 -37 -5 -7 20 -26 19 -26 -1 0 -12 -6 -15 -26 -10 -18 5 -32 2 -44 -9 -10
-9 -24 -15 -32 -14 -25 3 -39 -1 -33 -10 3 -5 0 -13 -6 -16 -5 -4 -8 -13 -5
-21 7 -19 -8 -18 -24 1 -21 25 -33 17 -26 -17 5 -25 4 -30 -6 -20 -15 15 -54
16 -63 2 -3 -5 -15 -10 -26 -10 -22 0 -23 -4 -9 -29 14 -28 -24 -60 -50 -43
-27 17 -38 15 -45 -7 -6 -20 -46 -32 -101 -31 -28 0 -31 -2 -26 -25 3 -20 1
-24 -12 -19 -9 3 -23 1 -32 -6 -11 -10 -18 -10 -26 -2 -7 7 -21 12 -31 12 -16
0 -17 -3 -8 -14 9 -11 6 -18 -15 -35 -18 -14 -24 -26 -19 -38 9 -24 5 -29 -19
-25 -17 3 -18 2 -7 -12 12 -14 11 -16 -7 -16 -11 0 -23 6 -25 13 -3 6 -6 2 -6
-10 -1 -27 -27 -34 -63 -16 -16 7 -29 9 -33 4 -3 -5 3 -12 14 -16 24 -7 56
-43 47 -52 -4 -4 -16 3 -26 17 l-20 25 -1 -25 c-1 -14 -1 -29 0 -34 1 -4 -10
-5 -24 -2 -14 4 -25 2 -25 -4 0 -5 3 -10 8 -10 4 0 12 -11 19 -25 9 -20 8 -25
-3 -25 -8 0 -14 6 -14 13 0 9 -3 8 -9 -2 -6 -9 -18 -11 -35 -7 -19 5 -27 3
-25 -6 3 -28 -2 -38 -20 -38 -10 0 -26 -11 -34 -24 -14 -21 -14 -26 -2 -36 21
-17 19 -23 -14 -38 -34 -15 -40 -57 -10 -65 29 -8 22 -27 -10 -27 -20 0 -30
-6 -34 -20 -3 -13 -17 -22 -36 -26 -27 -6 -30 -10 -25 -28 4 -11 7 -28 6 -38
0 -9 9 -19 21 -24 19 -6 17 -8 -13 -11 -46 -6 -59 -19 -36 -36 17 -13 16 -15
-19 -31 -34 -16 -35 -19 -18 -32 10 -7 34 -14 53 -14 l35 -1 -25 -14 c-14 -8
-36 -15 -50 -15 -25 -1 -25 -1 -5 -16 20 -15 20 -15 -2 -34 -21 -16 -34 -48
-15 -36 4 2 16 -2 27 -10 18 -13 17 -14 -11 -15 -16 -1 -38 -1 -49 -1 -17 1
-17 0 -2 -4 9 -3 17 -9 17 -14 0 -5 15 -10 33 -12 l32 -4 -27 -12 c-44 -18
-35 -38 15 -33 9 1 17 0 17 -3 0 -10 -57 -35 -65 -28 -4 4 -5 -6 -3 -23 2 -22
9 -31 26 -33 25 -4 26 -6 12 -33 -8 -15 -7 -19 5 -19 8 0 15 -7 15 -15 0 -8
-9 -15 -19 -15 -11 0 -22 -4 -25 -9 -4 -5 2 -7 13 -4 20 5 42 -18 23 -25 -21
-7 -13 -25 8 -19 24 6 26 -5 5 -23 -12 -10 -13 -15 -4 -21 8 -4 4 -9 -10 -14
-11 -3 -21 -13 -21 -22 0 -8 -10 -23 -22 -34 -15 -11 -18 -18 -9 -19 11 0 11
-3 1 -15 -10 -12 -9 -16 4 -21 11 -4 15 -13 11 -25 -4 -11 -2 -19 4 -19 6 0
11 -5 11 -12 0 -6 7 -19 15 -28 14 -15 14 -20 1 -45 -8 -15 -21 -32 -28 -36
-9 -6 -4 -9 15 -9 31 0 33 -7 10 -39 -16 -24 -16 -24 13 -17 l29 8 -21 -24
c-27 -30 -30 -71 -5 -63 14 4 20 -1 24 -22 3 -15 1 -36 -4 -46 -16 -28 -2 -36
50 -30 64 7 105 -8 166 -62 l50 -44 -25 -25 -25 -26 -54 40 c-86 65 -130 66
-174 3 -26 -38 -57 -155 -57 -217 0 -42 28 -125 51 -149 21 -23 39 -15 39 17
0 72 62 186 101 186 25 0 21 -51 -8 -99 -20 -34 -26 -59 -27 -102 -1 -52 2
-60 38 -100 55 -61 82 -74 127 -62 20 5 46 6 57 2 20 -7 21 -5 15 24 -7 40
-12 45 -23 27 -13 -21 -23 -5 -16 24 3 14 15 27 25 31 22 7 29 22 40 83 7 36
6 44 -10 53 -25 13 -24 30 3 82 20 37 23 39 26 19 3 -18 9 -22 30 -20 23 3 27
-1 27 -21 0 -15 8 -27 23 -32 26 -10 26 -10 10 -44 -8 -18 -8 -31 0 -49 6 -13
8 -27 4 -30 -3 -4 -7 -13 -8 -21 -2 -12 2 -13 19 -4 32 17 67 51 67 65 0 20
58 81 92 99 20 9 59 15 108 15 l78 0 6 35 c4 19 12 35 18 35 5 0 8 7 4 15 -7
19 13 19 50 0 21 -11 66 -15 169 -16 146 -1 186 -7 192 -26 3 -7 -10 -21 -27
-31 l-31 -19 43 -5 c24 -3 72 -19 108 -36 80 -39 203 -52 415 -45 129 4 141 6
157 26 l17 22 23 -23 c14 -12 27 -22 31 -22 16 0 80 78 98 118 25 57 24 88 -2
40 -12 -23 -27 -38 -38 -38 -13 0 -18 -7 -18 -26 0 -14 -5 -30 -11 -36 -16
-16 -34 2 -29 28 5 28 -22 34 -29 6 -4 -14 -28 -21 -117 -35 -124 -19 -167
-22 -167 -8 0 5 12 12 27 16 44 11 153 66 153 78 0 6 -7 19 -17 29 -20 22 -10
36 11 15 9 -8 25 -12 39 -10 17 3 32 -2 46 -16 24 -24 31 -26 31 -10 0 25 36
86 68 117 19 17 36 32 39 32 2 0 9 -13 14 -30 15 -43 31 -38 23 8 -7 42 -25
74 -62 115 -14 15 -21 27 -16 27 18 0 54 -31 69 -59 14 -28 61 -48 67 -29 2 5
19 11 39 14 27 5 40 2 50 -10 8 -10 19 -22 25 -29 12 -13 7 -47 -7 -47 -20 0
-7 -20 26 -40 32 -20 36 -20 51 -6 20 20 34 20 34 0 0 -14 12 -15 98 -9 53 4
147 8 207 10 106 3 111 2 137 -22 34 -32 63 -25 54 12 -4 16 -2 25 5 25 13 0
4 45 -16 76 -21 33 -77 54 -156 59 -42 3 -76 10 -80 17 -10 16 -8 17 37 33
l38 13 -79 7 c-67 7 -80 5 -90 -9 -7 -9 -17 -16 -23 -16 -6 0 -38 -25 -71 -56
-64 -59 -75 -59 -41 -1 14 24 34 40 68 52 26 10 51 21 55 25 10 9 -165 17
-478 24 -110 3 -187 2 -170 -2 24 -6 31 -14 39 -46 7 -32 6 -41 -8 -51 -16
-12 -25 -74 -15 -104 3 -11 -13 -13 -81 -12 -147 2 -220 12 -220 29 0 10 3 12
13 4 6 -6 49 -11 93 -11 45 0 89 -4 98 -7 17 -7 19 -2 16 63 -2 49 18 87 37
71 9 -7 14 -6 19 6 4 9 4 19 2 22 -8 7 -169 11 -173 3 -6 -8 45 -22 53 -15 8
9 32 -43 32 -69 0 -13 -8 -32 -17 -44 -16 -19 -22 -20 -62 -9 -28 7 -45 18
-49 30 -2 10 -20 25 -38 33 -32 13 -34 17 -34 64 l0 51 -152 -6 c-153 -6 -190
-15 -211 -51 -4 -7 -16 -13 -25 -13 -10 0 -22 -4 -27 -9 -6 -5 -29 -11 -53
-14 -39 -5 -42 -3 -37 14 4 11 2 19 -5 19 -6 0 -26 10 -43 23 -30 22 -38 23
-137 17 -88 -5 -111 -4 -140 11 -40 19 -110 23 -190 10 -30 -5 -61 -5 -69 -1
-16 9 -8 12 74 30 56 13 75 25 75 50 0 10 7 23 15 30 8 7 15 20 15 29 0 9 9
24 20 34 12 10 18 22 14 28 -4 6 -1 15 7 19 8 5 12 24 11 47 -2 28 3 45 19 61
13 15 18 29 13 40 -13 32 -14 54 -5 151 8 85 20 130 52 193 12 24 11 48 -1 48
-25 0 8 57 66 118 35 35 64 71 64 78 0 17 37 42 70 46 14 2 31 7 38 11 14 10
32 1 32 -17 0 -6 5 -17 12 -24 9 -9 17 -6 34 13 14 15 29 22 41 19 11 -3 36 4
57 15 44 25 74 27 103 6 18 -13 26 -13 43 -3 16 10 24 10 39 1 16 -10 26 -9
53 4 18 9 40 22 49 30 11 10 23 11 40 5 29 -11 50 -10 107 7 33 9 47 9 57 1
11 -9 23 -9 48 1 32 11 37 10 70 -15 34 -26 44 -28 150 -31 l113 -3 34 34 33
35 28 -27 c16 -15 34 -24 43 -21 9 4 28 -8 49 -32 26 -29 38 -36 51 -29 9 5
16 15 16 22 0 14 29 76 36 76 2 0 13 -9 24 -20 11 -11 28 -20 37 -20 9 0 38
-18 64 -40 26 -22 54 -40 62 -40 32 0 177 -95 177 -115 0 -4 16 -26 36 -51 45
-54 89 -162 108 -262 18 -95 41 -345 33 -365 -4 -12 -21 -14 -84 -10 -106 7
-182 4 -203 -7 -10 -6 -43 -10 -73 -10 -30 0 -67 -6 -82 -14 -15 -8 -34 -12
-41 -9 -9 3 -18 -6 -25 -25 -6 -16 -20 -33 -32 -38 -37 -13 200 -21 446 -16
218 5 227 6 221 24 -4 14 0 21 14 25 33 8 35 33 7 63 -31 33 -31 38 0 32 22
-4 25 -1 25 25 0 16 -6 35 -12 42 -11 10 -10 15 5 25 21 16 22 30 2 46 -22 19
-18 39 10 50 32 12 31 16 -5 35 -16 9 -30 19 -30 24 0 10 48 2 56 -10 3 -5 10
-9 15 -9 6 0 -2 15 -16 34 -24 32 -25 34 -6 29 23 -6 27 7 9 25 -10 10 -10 14
0 21 16 9 7 54 -14 72 -19 16 -9 28 18 21 l22 -5 -23 31 c-12 18 -19 36 -16
42 3 5 -3 10 -14 10 -33 0 -25 18 11 25 l32 7 -24 21 -25 20 28 -7 c20 -5 27
-3 27 8 0 8 -4 17 -10 21 -5 3 -7 12 -3 20 3 10 -1 15 -15 15 -11 0 -25 7 -32
15 -10 12 -9 15 4 15 9 0 19 7 22 15 4 8 16 15 28 16 19 1 19 2 -3 8 -18 5
-25 14 -25 34 -1 15 2 27 7 27 4 0 6 4 3 9 -3 5 2 12 12 16 13 6 6 10 -27 19
-52 13 -63 31 -24 39 28 6 43 40 23 52 -4 3 -6 14 -3 25 4 14 0 20 -11 20 -20
0 -21 16 -1 24 21 8 19 26 -2 26 -16 1 -16 2 1 15 20 15 20 15 0 15 -17 0 -16
3 6 20 l25 20 -37 0 c-21 0 -38 5 -38 10 0 6 5 10 10 10 6 0 10 7 10 15 0 8 5
15 11 15 6 0 9 6 6 13 -2 6 -14 10 -27 9 -18 -3 -21 0 -17 13 4 9 0 26 -8 39
-9 13 -13 30 -9 39 5 13 -1 14 -35 10 -27 -4 -41 -2 -41 6 0 6 6 11 13 12 6 0
-1 5 -16 11 l-28 10 22 24 22 24 -32 0 c-21 0 -31 4 -29 12 3 7 -8 25 -24 40
-15 15 -28 31 -28 36 0 17 -51 61 -65 56 -7 -3 -19 3 -26 14 -9 11 -25 18 -44
18 -23 -1 -29 3 -27 16 2 12 -2 16 -11 12 -8 -3 -25 6 -38 20 -13 14 -33 26
-44 26 -23 0 -65 26 -78 47 -5 8 -16 12 -25 9 -9 -3 -30 -2 -47 3 -20 6 -23
10 -10 10 30 1 8 15 -80 48 -256 97 -536 171 -783 208 -126 19 -308 17 -325
-3z m1868 -1282 c3 -6 -1 -7 -9 -4 -18 7 -21 14 -7 14 6 0 13 -4 16 -10z
m-3085 -354 c0 -3 -4 -8 -10 -11 -5 -3 -10 -1 -10 4 0 6 5 11 10 11 6 0 10 -2
10 -4z m439 -22 c9 -8 -23 -34 -42 -34 -20 0 -20 0 -1 15 16 13 17 16 4 25
-12 9 -9 10 10 4 14 -3 27 -8 29 -10z m-441 -61 c-2 -9 -15 -20 -30 -24 -31
-8 -36 2 -12 25 21 21 46 21 42 -1z m-21 -69 c-3 -3 -12 -4 -19 -1 -8 3 -5 6
6 6 11 1 17 -2 13 -5z m603 -19 c0 -3 -8 -13 -17 -24 -10 -10 -31 -33 -47 -50
-39 -44 -43 -32 -9 28 21 38 34 51 51 51 12 0 22 -2 22 -5z m-540 -89 c0 -2
-8 -10 -17 -17 -16 -13 -17 -12 -4 4 13 16 21 21 21 13z m280 -256 c-20 -13
-60 -13 -60 0 0 6 17 10 38 10 27 0 33 -3 22 -10z m996 -96 c-22 -15 -46 -19
-46 -6 0 9 52 31 60 24 3 -2 -4 -10 -14 -18z m-263 -104 c10 -10 -2 -11 -64
-7 -117 10 -145 28 -36 24 55 -2 92 -8 100 -17z m489 11 c13 -5 59 -11 103
-15 138 -11 160 -16 153 -38 -5 -13 -179 -20 -194 -8 -6 6 -46 16 -88 22 -80
13 -102 34 -43 41 17 2 35 5 39 5 4 1 17 -2 30 -7z m-1272 -74 c0 -18 -32 -47
-51 -47 -21 0 -21 28 -1 53 14 16 52 12 52 -6z"/>
<path d="M2818 8063 c18 -2 45 -2 60 0 15 2 0 4 -33 4 -33 0 -45 -2 -27 -4z"/>
<path d="M5141 6569 c-19 -4 -49 -5 -67 -2 -24 4 -47 -2 -83 -21 -28 -14 -61
-26 -73 -26 -13 0 -30 -5 -38 -10 -11 -7 -5 -10 25 -10 22 0 171 -7 330 -15
350 -18 365 -18 345 -5 -8 5 -27 10 -42 10 -15 0 -33 6 -40 13 -7 6 -26 19
-41 27 -23 11 -30 12 -36 1 -7 -10 -15 -10 -40 4 -18 9 -38 14 -44 12 -7 -2
-19 2 -29 10 -18 16 -115 23 -167 12z"/>
<path d="M6643 6543 c9 -2 23 -2 30 0 6 3 -1 5 -18 5 -16 0 -22 -2 -12 -5z"/>
<path d="M6695 6545 c24 -8 334 -12 329 -4 -3 5 -80 9 -172 8 -92 0 -162 -2
-157 -4z"/>
<path d="M7041 6536 c11 -9 438 -16 444 -6 4 7 -69 10 -221 10 -125 0 -225 -2
-223 -4z"/>
<path d="M5658 6473 c7 -3 16 -2 19 1 4 3 -2 6 -13 5 -11 0 -14 -3 -6 -6z"/>
<path d="M5118 6423 c7 -3 16 -2 19 1 4 3 -2 6 -13 5 -11 0 -14 -3 -6 -6z"/>
<path d="M5158 6413 c7 -3 16 -2 19 1 4 3 -2 6 -13 5 -11 0 -14 -3 -6 -6z"/>
<path d="M6430 6365 c0 -8 9 -15 19 -15 10 0 21 -7 25 -15 7 -19 30 -19 119 2
82 18 74 25 -47 38 -53 5 -71 4 -78 -7 -7 -10 -11 -10 -15 0 -7 17 -23 15 -23
-3z"/>
<path d="M6538 6293 c6 -2 18 -2 25 0 6 3 1 5 -13 5 -14 0 -19 -2 -12 -5z"/>
<path d="M6649 6289 c-10 -6 -7 -9 14 -9 29 0 35 5 14 13 -8 3 -20 1 -28 -4z"/>
<path d="M6733 6283 c9 -2 23 -2 30 0 6 3 -1 5 -18 5 -16 0 -22 -2 -12 -5z"/>
<path d="M6790 6287 c3 -3 142 -9 310 -12 168 -4 302 -4 299 -1 -8 8 -616 21
-609 13z"/>
<path d="M8138 6253 c7 -3 16 -2 19 1 4 3 -2 6 -13 5 -11 0 -14 -3 -6 -6z"/>
<path d="M5955 6123 c-50 -7 -50 -20 0 -55 83 -58 82 -57 67 -66 -17 -11 30
-22 95 -22 49 0 118 25 108 39 -3 6 13 15 35 22 50 15 52 36 3 44 -21 4 -47
10 -58 15 -11 5 -58 11 -105 15 -47 3 -92 7 -100 9 -8 1 -28 1 -45 -1z"/>
<path d="M6643 6123 c59 -2 155 -2 215 0 59 1 10 3 -108 3 -118 0 -167 -2
-107 -3z"/>
<path d="M7072 6114 c3 -3 87 -8 187 -11 130 -4 181 -2 181 6 0 8 -56 11 -187
11 -102 0 -184 -3 -181 -6z"/>
<path d="M8080 6090 c0 -6 32 -10 78 -9 68 1 72 2 37 10 -56 11 -115 11 -115
-1z"/>
<path d="M5821 6045 c-1 -22 35 -105 44 -105 8 0 -6 74 -15 80 -4 3 -12 14
-18 25 l-11 20 0 -20z"/>
<path d="M8048 6013 c23 -2 59 -2 80 0 20 2 1 4 -43 4 -44 0 -61 -2 -37 -4z"/>
<path d="M3840 5701 c0 -5 5 -13 10 -16 6 -3 10 -2 10 4 0 5 -4 13 -10 16 -5
3 -10 2 -10 -4z"/>
<path d="M5087 5677 c-16 -5 -27 -16 -27 -27 0 -30 -121 -180 -146 -180 -7 0
-25 -13 -41 -28 -20 -21 -41 -30 -76 -34 -26 -3 -50 -2 -53 3 -8 13 -24 11
-24 -3 0 -7 -12 -21 -25 -31 -23 -16 -27 -17 -41 -3 -20 21 -59 20 -84 -1 -11
-10 -29 -26 -40 -35 -11 -10 -17 -24 -14 -33 6 -15 -17 -45 -34 -45 -5 0 -15
7 -22 15 -7 8 -25 15 -40 15 -42 0 -60 -52 -64 -185 -2 -61 0 -115 5 -121 6
-7 6 -22 0 -37 -7 -19 -6 -28 4 -37 8 -7 12 -16 9 -22 -3 -5 7 -18 21 -30 26
-21 27 -22 9 -35 -16 -12 -17 -15 -4 -23 12 -7 10 -13 -13 -34 -14 -13 -34
-26 -43 -28 -9 -2 -22 -11 -28 -20 -8 -14 -5 -23 19 -48 19 -20 35 -28 47 -24
25 8 23 -12 -4 -30 -12 -9 -31 -13 -45 -10 -28 8 -29 0 -2 -34 76 -99 88 -119
76 -131 -9 -10 -8 -15 4 -24 11 -8 15 -22 12 -43 -4 -25 0 -32 21 -42 17 -7
24 -17 20 -27 -11 -28 5 -65 28 -65 17 0 19 -3 10 -12 -18 -18 -14 -30 7 -23
13 4 20 0 24 -16 3 -12 10 -18 16 -14 6 3 9 12 5 18 -3 7 4 0 16 -15 13 -17
27 -25 36 -21 10 4 17 -2 21 -16 4 -15 9 -19 17 -11 9 7 16 0 26 -25 10 -25
21 -36 42 -41 18 -3 33 -15 38 -30 5 -13 15 -24 21 -24 6 0 24 -9 40 -21 17
-12 39 -19 49 -16 12 3 20 0 20 -7 0 -20 37 -49 45 -37 3 6 13 11 22 11 13 0
14 -2 2 -17 -12 -15 -12 -16 3 -11 24 10 30 -3 13 -29 -14 -21 -14 -23 0 -23
8 0 15 -8 15 -19 0 -15 10 -19 57 -25 60 -7 91 5 63 25 -12 9 -12 10 3 5 10
-3 28 1 40 9 21 15 21 15 -8 16 -29 0 -29 1 -6 10 17 6 28 6 39 -3 13 -11 15
-10 10 10 -5 17 -2 22 13 22 12 0 16 5 13 14 -4 9 5 20 23 29 15 8 39 27 52
41 13 14 27 23 32 21 4 -3 10 -1 14 5 3 6 47 10 100 10 147 0 240 17 313 57
34 19 62 36 62 37 0 2 -10 4 -22 5 -13 0 -77 2 -143 4 -74 3 -122 0 -126 -6
-8 -11 -129 22 -129 35 0 4 -15 7 -32 6 -46 -3 -207 22 -214 33 -3 5 -16 9
-30 9 -17 0 -23 4 -18 12 4 6 3 8 -4 4 -6 -3 -30 1 -54 10 -24 9 -55 15 -69
15 -15 -1 -32 5 -38 13 -7 8 -26 18 -42 21 -23 5 -34 16 -47 48 -9 23 -15 48
-14 55 2 7 -7 16 -20 22 -13 5 -17 9 -9 9 11 1 10 6 -5 22 -15 17 -16 23 -5
41 10 16 10 23 -2 36 -23 26 -26 67 -5 67 18 0 50 25 32 25 -5 0 -2 5 6 11 12
9 11 10 -7 6 -27 -6 -31 14 -8 33 19 16 20 49 1 56 -12 4 -28 58 -30 102 -1 7
-19 28 -41 48 -23 21 -35 38 -28 41 7 2 10 10 8 16 -9 23 -12 132 -5 147 4 8
15 32 24 54 16 36 19 38 51 32 23 -5 45 -1 65 9 33 17 58 12 42 -8 -6 -7 -7
-33 -2 -62 7 -44 14 -56 64 -101 64 -59 130 -86 316 -134 180 -45 254 -58 348
-61 85 -3 127 11 81 27 -25 9 -31 9 -147 12 -63 2 -76 5 -96 27 -20 22 -24 23
-38 9 -13 -13 -22 -14 -57 -4 -22 6 -41 14 -41 18 0 5 -6 17 -14 28 -14 19
-15 19 -29 0 -18 -25 -53 -14 -72 23 -14 28 -24 106 -14 115 13 13 50 -10 75
-46 l28 -39 33 36 c35 39 49 38 87 -4 l19 -21 26 24 c14 13 36 27 49 31 33 10
81 -13 88 -41 8 -31 15 -30 36 5 9 16 30 37 47 45 29 15 32 15 50 -3 20 -20
34 -17 44 12 4 11 17 17 40 17 19 0 40 7 47 15 18 22 30 9 30 -33 -1 -82 -16
-114 -82 -174 -50 -45 -60 -59 -51 -69 24 -25 153 40 153 77 0 6 12 19 28 29
15 9 48 39 73 65 38 40 52 48 79 47 31 -2 33 1 47 45 13 46 15 48 47 44 25 -4
42 2 67 21 19 14 49 31 67 39 17 8 32 21 32 29 0 8 7 15 15 15 17 0 30 58 21
102 -9 45 -55 137 -87 175 -15 17 -28 35 -30 40 -5 11 -117 97 -145 112 -41
20 -46 -6 -23 -105 11 -49 25 -106 31 -126 12 -42 -7 -198 -25 -198 -5 0 -2
-9 7 -19 20 -22 14 -41 -13 -41 -9 0 -21 -4 -26 -9 -19 -17 -155 -41 -233 -41
-65 0 -84 4 -103 20 l-24 19 26 1 c15 0 32 7 39 15 9 10 9 15 1 15 -22 0 -10
22 40 70 28 28 46 50 40 50 -7 0 -10 4 -7 8 3 5 -6 15 -19 22 -15 8 -25 22
-25 35 0 27 -28 54 -55 54 -11 0 -57 11 -103 25 -71 22 -90 24 -140 16 -89
-15 -199 -12 -237 6 -42 19 -64 70 -67 153 -1 34 -5 61 -8 62 -48 5 -80 4
-103 -4z m54 -257 c5 0 9 -17 9 -37 0 -105 40 -149 160 -179 73 -17 133 -54
116 -71 -13 -14 -315 -6 -332 8 -11 9 -15 27 -13 62 3 45 0 51 -22 60 -20 8
-21 11 -6 14 23 6 22 23 -3 23 -13 0 -20 7 -20 18 0 10 -4 22 -9 28 -4 5 -11
23 -14 41 -6 28 -3 32 25 42 16 6 34 8 39 5 5 -3 19 2 31 11 22 15 23 14 26
-5 2 -11 8 -20 13 -20z m-600 -235 c11 -52 13 -59 36 -84 12 -13 21 -36 21
-51 -1 -15 2 -32 5 -37 4 -6 2 -25 -3 -42 -7 -24 -6 -33 4 -37 15 -6 10 -44
-6 -44 -5 0 -15 13 -21 29 -6 16 -19 32 -30 35 -10 2 -16 9 -13 15 4 6 14 7
22 4 14 -5 14 -3 3 15 -12 19 -11 23 6 36 20 15 20 15 -2 31 -17 12 -23 26
-23 54 0 27 -7 44 -25 61 -31 29 -32 47 -2 46 16 -1 24 -9 28 -31z m529 5 c0
-5 -5 -10 -11 -10 -5 0 -7 5 -4 10 3 6 8 10 11 10 2 0 4 -4 4 -10z m-605 -400
c3 -5 1 -10 -4 -10 -6 0 -11 5 -11 10 0 6 2 10 4 10 3 0 8 -4 11 -10z m-98
-76 c-3 -3 -12 -4 -19 -1 -8 3 -5 6 6 6 11 1 17 -2 13 -5z m33 -134 c12 -8 9
-10 -12 -10 -16 0 -28 5 -28 10 0 13 20 13 40 0z"/>
<path d="M5890 5403 c-29 -24 -31 -28 -14 -34 20 -7 48 12 65 43 15 28 -14 23
-51 -9z"/>
<path d="M3885 5370 c-22 -5 -60 -10 -85 -10 l-45 -2 35 -8 c19 -4 69 -10 112
-12 74 -5 76 -4 69 16 -9 24 -29 28 -86 16z"/>
<path d="M8128 5143 c17 -2 47 -2 65 0 17 2 3 4 -33 4 -36 0 -50 -2 -32 -4z"/>
<path d="M7258 4903 c34 -2 88 -2 120 0 31 2 3 3 -63 3 -66 0 -92 -1 -57 -3z"/>
<path d="M7468 4903 c7 -3 16 -2 19 1 4 3 -2 6 -13 5 -11 0 -14 -3 -6 -6z"/>
<path d="M7418 4813 c34 -2 88 -2 120 0 31 2 3 3 -63 3 -66 0 -92 -1 -57 -3z"/>
<path d="M5310 4700 c0 -5 5 -10 11 -10 5 0 7 5 4 10 -3 6 -8 10 -11 10 -2 0
-4 -4 -4 -10z"/>
<path d="M5340 4673 c0 -7 -11 -13 -24 -13 -29 0 -38 -27 -21 -67 12 -28 17
-30 136 -51 96 -16 133 -19 164 -11 22 5 53 12 70 14 32 5 72 31 89 58 17 27
-6 39 -76 42 -87 4 -171 16 -185 27 -7 5 -16 7 -20 5 -5 -3 -36 -2 -71 2 -48
6 -62 4 -62 -6z"/>
<path d="M6992 4653 c37 -2 100 -2 140 0 40 1 10 3 -67 3 -77 0 -110 -1 -73
-3z"/>
<path d="M4820 4600 c0 -5 7 -10 15 -10 8 0 15 5 15 10 0 6 -7 10 -15 10 -8 0
-15 -4 -15 -10z"/>
<path d="M7668 4553 c12 -2 32 -2 45 0 12 2 2 4 -23 4 -25 0 -35 -2 -22 -4z"/>
<path d="M7828 4553 c7 -3 16 -2 19 1 4 3 -2 6 -13 5 -11 0 -14 -3 -6 -6z"/>
<path d="M6050 4420 c0 -5 7 -10 15 -10 8 0 15 5 15 10 0 6 -7 10 -15 10 -8 0
-15 -4 -15 -10z"/>
<path d="M7388 4393 c7 -3 16 -2 19 1 4 3 -2 6 -13 5 -11 0 -14 -3 -6 -6z"/>
<path d="M7813 4383 c15 -2 37 -2 50 0 12 2 0 4 -28 4 -27 0 -38 -2 -22 -4z"/>
<path d="M6061 4341 c-10 -6 -10 -10 -1 -16 13 -8 24 -1 19 14 -3 6 -10 7 -18
2z"/>
<path d="M3798 4330 c-21 -4 -57 -15 -80 -24 -24 -10 -53 -22 -65 -27 -22 -8
-66 -68 -83 -114 -12 -30 -6 -31 23 -4 29 28 97 61 177 88 101 33 184 69 188
80 4 12 -100 13 -160 1z"/>
<path d="M6608 4313 c7 -3 16 -2 19 1 4 3 -2 6 -13 5 -11 0 -14 -3 -6 -6z"/>
<path d="M6698 4313 c7 -3 16 -2 19 1 4 3 -2 6 -13 5 -11 0 -14 -3 -6 -6z"/>
<path d="M7008 4303 c7 -3 16 -2 19 1 4 3 -2 6 -13 5 -11 0 -14 -3 -6 -6z"/>
<path d="M7158 4303 c29 -2 74 -2 100 0 26 2 2 3 -53 3 -55 0 -76 -1 -47 -3z"/>
<path d="M6055 4250 c-3 -5 1 -10 9 -10 9 0 16 5 16 10 0 6 -4 10 -9 10 -6 0
-13 -4 -16 -10z"/>
<path d="M6918 4223 c6 -2 18 -2 25 0 6 3 1 5 -13 5 -14 0 -19 -2 -12 -5z"/>
<path d="M7122 4218 c-9 -4 78 -6 193 -5 210 1 192 5 -48 9 -70 2 -136 0 -145
-4z"/>
<path d="M3781 4180 c-76 -46 -133 -99 -172 -159 -41 -64 -36 -71 10 -14 49
62 146 153 194 182 20 12 37 25 37 27 0 6 -1 6 -69 -36z"/>
<path d="M7653 4203 c48 -2 126 -2 175 0 48 1 8 3 -88 3 -96 0 -136 -2 -87 -3z"/>
<path d="M6060 4160 c0 -5 5 -10 10 -10 6 0 10 5 10 10 0 6 -4 10 -10 10 -5 0
-10 -4 -10 -10z"/>
<path d="M6858 4143 c23 -2 59 -2 80 0 20 2 1 4 -43 4 -44 0 -61 -2 -37 -4z"/>
<path d="M7133 4133 c26 -2 67 -2 90 0 23 2 2 3 -48 3 -49 0 -68 -1 -42 -3z"/>
<path d="M7328 4133 c6 -2 18 -2 25 0 6 3 1 5 -13 5 -14 0 -19 -2 -12 -5z"/>
<path d="M7388 4133 c6 -2 18 -2 25 0 6 3 1 5 -13 5 -14 0 -19 -2 -12 -5z"/>
<path d="M7518 4123 c7 -3 16 -2 19 1 4 3 -2 6 -13 5 -11 0 -14 -3 -6 -6z"/>
<path d="M6065 4080 c-3 -5 -1 -10 4 -10 6 0 11 5 11 10 0 6 -2 10 -4 10 -3 0
-8 -4 -11 -10z"/>
<path d="M6523 4063 c9 -2 25 -2 35 0 9 3 1 5 -18 5 -19 0 -27 -2 -17 -5z"/>
<path d="M6638 4063 c7 -3 16 -2 19 1 4 3 -2 6 -13 5 -11 0 -14 -3 -6 -6z"/>
<path d="M6678 4063 c6 -2 18 -2 25 0 6 3 1 5 -13 5 -14 0 -19 -2 -12 -5z"/>
<path d="M6741 4065 c8 -8 138 -10 145 -2 4 4 -28 7 -71 7 -43 0 -76 -2 -74
-5z"/>
<path d="M6900 4059 c0 -5 19 -9 42 -9 49 0 47 5 -4 13 -21 3 -38 2 -38 -4z"/>
<path d="M7058 4053 c12 -2 30 -2 40 0 9 3 -1 5 -23 4 -22 0 -30 -2 -17 -4z"/>
<path d="M5747 4043 c-16 -15 -4 -40 30 -63 55 -39 101 -90 127 -145 56 -117
52 -389 -8 -500 -9 -16 -16 -36 -16 -44 0 -8 -3 -11 -7 -7 -4 4 -9 46 -10 94
-5 144 -20 266 -49 388 -21 91 -31 115 -47 108 -12 -4 -10 -16 9 -62 31 -78
42 -157 49 -362 4 -96 8 -192 10 -213 3 -31 -4 -48 -43 -105 -25 -37 -49 -69
-53 -72 -4 -3 -40 -37 -81 -75 -40 -39 -113 -94 -163 -123 -49 -29 -97 -57
-105 -62 -43 -27 -190 -92 -229 -102 -24 -6 -71 -24 -103 -40 -33 -16 -79 -31
-104 -35 -24 -3 -44 -9 -44 -14 0 -14 60 -40 73 -32 9 5 9 4 0 -8 -7 -8 -11
-31 -9 -50 2 -19 1 -26 -1 -16 -6 24 -33 21 -33 -4 0 -11 -5 -17 -10 -14 -6 4
-8 10 -5 15 3 4 2 16 -1 25 -6 14 -8 14 -24 0 -16 -15 -18 -14 -23 6 -3 11
-10 18 -16 15 -12 -8 -12 -86 1 -86 5 0 7 -4 3 -10 -3 -5 -11 -7 -18 -5 -7 2
-37 7 -67 9 -30 3 -68 9 -84 14 -32 9 -48 32 -22 32 9 0 16 -4 16 -9 0 -5 12
-8 28 -7 26 3 27 5 25 57 -3 98 -4 109 -15 109 -5 0 -8 -7 -4 -15 3 -8 1 -15
-4 -15 -6 0 -10 9 -10 20 0 11 -7 20 -15 20 -12 0 -15 -13 -13 -70 2 -42 -1
-69 -7 -67 -5 1 -8 15 -7 31 5 42 -7 116 -19 116 -7 0 -10 -34 -8 -92 2 -65 0
-93 -9 -96 -7 -2 -12 1 -12 7 0 6 -7 11 -15 11 -8 0 -29 8 -48 19 -18 10 -49
22 -67 26 -30 7 -33 6 -22 -8 7 -8 25 -18 40 -22 14 -3 45 -15 67 -25 22 -10
88 -31 145 -46 93 -23 124 -26 275 -27 129 0 158 -2 120 -9 -75 -13 -250 -12
-340 2 -44 6 -109 23 -145 37 -307 119 -380 152 -535 243 -49 28 -105 61 -124
72 -19 11 -60 37 -92 59 -60 40 -103 54 -59 18 169 -137 447 -295 650 -370
262 -96 352 -113 559 -107 125 3 138 2 124 -12 -9 -8 -30 -15 -47 -16 -17 0
-90 -3 -163 -7 -89 -5 -133 -4 -138 3 -3 5 -18 10 -33 9 -39 -1 -148 26 -174
43 -31 20 -116 48 -145 48 -14 0 -23 6 -23 15 0 9 -6 12 -15 9 -8 -4 -15 -1
-15 5 0 6 -9 11 -20 11 -11 0 -20 4 -20 9 0 5 -17 11 -38 15 -21 3 -47 15 -57
26 -10 11 -24 20 -32 20 -14 0 -76 39 -81 53 -2 4 -11 7 -20 7 -9 0 -57 20
-107 45 -49 25 -95 45 -102 45 -7 0 -13 7 -13 15 0 9 -9 15 -25 15 -15 0 -24
5 -23 13 2 7 -9 13 -24 15 -16 2 -28 8 -28 13 0 5 -7 9 -15 9 -9 0 -20 11 -25
25 -6 15 -17 25 -30 25 -13 0 -20 7 -20 20 0 13 -7 20 -19 20 -31 0 -91 39
-84 56 3 9 -2 14 -17 14 -17 0 -21 4 -17 20 4 17 1 19 -19 14 -14 -4 -24 -2
-24 4 0 13 -47 62 -59 62 -5 0 -15 7 -22 17 -11 13 -11 17 -1 20 18 7 15 21
-7 28 -12 4 -18 12 -14 20 3 9 -4 18 -21 25 -14 5 -26 13 -26 17 0 5 -18 9
-40 10 -45 1 -49 -8 -20 -39 17 -18 21 -19 37 -7 15 12 16 12 11 -2 -5 -12 -1
-15 18 -11 18 3 23 1 19 -10 -3 -8 -23 -14 -52 -16 -26 -1 -51 -6 -57 -12 -7
-7 -6 -10 3 -10 7 0 -2 -12 -21 -27 -18 -16 -42 -36 -52 -45 -11 -10 -26 -18
-33 -18 -7 0 -10 -6 -7 -15 5 -12 10 -13 20 -4 11 9 14 8 14 -7 0 -11 -4 -24
-8 -30 -9 -13 -52 -13 -52 1 0 5 -4 4 -9 -4 -7 -11 -13 -11 -32 -1 -16 9 -24
10 -27 2 -2 -6 -16 2 -32 18 -30 31 -41 31 -33 0 3 -11 11 -16 19 -13 8 3 14
0 14 -6 0 -6 -4 -11 -10 -11 -24 0 -6 -17 40 -37 28 -12 50 -27 50 -33 0 -13
-23 -13 -37 1 -9 9 -12 4 -11 -20 1 -20 6 -31 15 -31 8 0 11 -5 7 -11 -3 -6 6
-22 21 -35 16 -13 24 -24 20 -24 -5 0 -4 -5 3 -12 16 -16 15 -28 -2 -28 -12 0
-30 -34 -27 -52 2 -15 -28 -8 -45 10 -17 16 -18 16 -11 -1 6 -15 3 -17 -13
-12 -15 5 -22 1 -29 -17 -14 -38 -3 -51 26 -28 17 13 30 17 37 11 7 -6 26 -8
44 -5 26 4 31 2 26 -10 -8 -22 3 -20 28 4 24 22 38 26 38 10 0 -5 -7 -10 -15
-10 -8 0 -15 -9 -15 -20 0 -11 -4 -20 -10 -20 -20 0 -9 -29 12 -32 12 -2 23
-9 24 -16 1 -7 0 -8 -3 -2 -2 5 -9 7 -14 4 -16 -10 11 -34 38 -34 19 0 24 -4
19 -16 -4 -11 -1 -14 13 -9 10 3 23 -1 30 -9 10 -12 8 -13 -10 -9 -14 4 -25 0
-31 -11 -6 -11 -16 -15 -29 -11 -21 7 -25 -5 -7 -23 7 -7 8 -12 2 -12 -6 0
-19 9 -29 20 -10 12 -25 18 -32 16 -7 -3 -13 -2 -13 3 0 4 -17 12 -37 17 l-38
11 37 -1 c21 0 41 3 44 7 12 11 -29 36 -45 27 -16 -9 -51 -2 -51 11 0 5 11 9
25 9 14 0 25 4 25 10 0 11 -89 8 -108 -4 -20 -12 -28 2 -14 25 10 16 10 20 -3
25 -23 9 -18 26 5 19 29 -9 16 17 -15 32 -26 11 -47 1 -57 -27 -2 -6 -17 -12
-33 -14 -22 -2 -31 -9 -33 -25 -3 -20 -1 -21 17 -12 26 14 66 -6 50 -25 -7 -8
-1 -15 20 -22 16 -6 32 -8 35 -5 8 8 37 -18 31 -27 -3 -4 3 -11 12 -15 16 -5
15 -8 -7 -25 -14 -11 -19 -20 -12 -20 6 0 12 -6 12 -14 0 -8 4 -16 9 -18 21
-7 15 -30 -9 -34 -28 -5 -47 -20 -37 -30 3 -4 14 -3 24 1 23 10 63 13 63 5 0
-12 -25 -30 -41 -30 -10 0 -21 -5 -25 -11 -5 -9 4 -10 31 -5 32 6 37 5 32 -8
-4 -10 -1 -16 8 -16 33 0 12 -19 -35 -31 -30 -8 -47 -16 -41 -22 5 -5 16 -5
27 1 11 5 35 12 55 15 34 5 37 3 47 -29 12 -40 3 -49 -36 -39 -26 6 -26 6 -7
-9 17 -13 18 -17 5 -25 -8 -5 -18 -7 -22 -5 -4 3 -5 -2 -2 -10 5 -13 14 -10
47 16 31 25 39 28 34 14 -5 -12 -3 -23 5 -28 9 -5 9 -8 1 -8 -6 0 -24 -5 -40
-11 -22 -8 -24 -12 -13 -20 13 -8 13 -11 -1 -19 -9 -5 -20 -21 -23 -35 -4 -14
-12 -25 -20 -25 -7 0 -19 -7 -26 -15 -7 -8 -20 -15 -29 -14 -10 0 -7 4 8 10
19 7 22 12 13 21 -20 20 -13 28 18 21 26 -5 30 -2 30 15 0 12 -5 24 -11 27 -6
4 -8 13 -5 20 3 8 -6 21 -19 29 -28 18 -45 20 -45 6 0 -5 7 -10 15 -10 8 0 15
-4 15 -10 0 -13 -13 -13 -27 1 -15 15 -56 -10 -42 -27 7 -8 6 -14 -1 -19 -19
-12 -25 4 -13 35 l11 30 -39 0 c-24 0 -38 -4 -34 -10 3 -5 15 -10 26 -10 11 0
17 -5 14 -10 -3 -6 -15 -10 -25 -10 -19 0 -19 -1 -3 -20 10 -11 24 -20 31 -20
12 0 12 -3 2 -15 -9 -11 -16 -13 -24 -5 -19 19 -56 11 -65 -14 -5 -13 -19 -26
-30 -29 -12 -3 -19 -1 -16 3 3 5 1 11 -4 15 -6 3 -8 12 -5 19 3 8 -5 16 -20
20 -17 4 -26 13 -26 26 0 11 -4 20 -10 20 -5 0 -10 6 -10 14 0 21 -31 28 -50
11 -21 -19 -31 -19 -24 0 4 8 1 15 -5 15 -6 0 -11 -4 -11 -9 0 -5 -16 -9 -36
-8 -28 1 -34 5 -31 18 4 14 -4 16 -62 13 -36 -2 -67 -8 -69 -14 -8 -22 -33
-39 -50 -32 -16 6 -16 7 0 10 9 2 24 14 33 28 9 14 20 22 25 19 6 -4 10 -1 10
6 0 7 -10 9 -26 6 -21 -4 -25 -1 -21 13 3 13 0 17 -9 13 -12 -4 -13 -1 -3 21
15 32 8 41 -20 26 -31 -16 -27 6 6 34 27 23 27 24 9 51 -16 25 -16 27 -2 22
10 -4 21 1 28 13 7 11 19 20 27 20 8 0 11 3 7 7 -12 13 -40 9 -53 -7 -10 -13
-14 -13 -30 2 -16 17 -16 18 0 18 10 0 20 7 23 15 4 11 13 13 28 9 21 -7 21
-7 1 15 -10 12 -27 20 -36 18 -18 -5 -44 29 -29 38 6 3 10 14 10 23 -1 15 -2
15 -15 -2 -8 -11 -15 -15 -15 -8 0 6 -7 9 -16 5 -12 -4 -15 -1 -12 13 2 10 12
20 23 22 11 3 24 10 28 18 11 20 25 17 23 -3 0 -11 7 -19 19 -19 38 -3 40 -4
25 -14 -10 -7 -12 -12 -4 -17 6 -5 14 -20 18 -36 6 -24 10 -26 34 -21 27 7 27
7 8 -14 -16 -18 -17 -24 -6 -37 17 -20 22 -14 26 31 2 21 8 42 14 48 8 8 9 6
5 -6 -9 -22 21 -36 38 -19 8 8 8 11 0 11 -13 0 -24 38 -13 45 5 3 16 -2 25
-11 14 -15 20 -15 67 1 28 9 57 14 64 11 8 -3 14 1 14 9 0 22 -20 28 -39 11
-20 -18 -51 -21 -51 -5 0 7 -10 9 -25 5 -18 -5 -25 -2 -25 8 0 9 7 12 20 9 14
-4 20 0 20 10 0 23 62 32 100 16 16 -8 30 -17 30 -21 0 -5 7 -8 15 -8 8 0 15
-7 15 -16 0 -16 27 -43 43 -44 16 0 6 19 -13 25 -11 3 -20 11 -20 16 0 6 5 7
10 4 6 -3 10 -1 10 4 0 17 18 13 40 -9 20 -20 20 -20 20 0 0 11 -4 20 -10 20
-5 0 -10 8 -10 18 0 28 -46 49 -71 34 -11 -7 -19 -8 -19 -2 0 5 5 10 10 10 6
0 10 7 10 15 0 8 5 15 11 15 16 0 -1 20 -25 30 -18 7 -19 9 -5 15 11 4 26 -3
43 -18 30 -28 63 -40 72 -26 3 5 22 7 41 3 32 -6 35 -5 29 11 -4 11 0 25 10
36 12 13 13 22 5 36 -10 17 -11 17 -17 -3 -5 -18 -65 -54 -90 -54 -5 0 -17 9
-27 20 -9 11 -28 20 -42 20 -26 0 -34 15 -12 23 9 4 9 6 -1 6 -8 1 -16 -8 -19
-19 -3 -11 -16 -23 -29 -26 -25 -7 -31 -19 -14 -29 8 -5 8 -11 0 -20 -8 -9 -7
-13 2 -12 32 1 49 -4 43 -13 -3 -5 -26 -8 -52 -7 -43 2 -46 4 -49 34 -2 19 2
38 11 47 8 8 15 21 15 30 0 17 41 18 52 1 5 -6 8 -3 8 8 0 9 -6 17 -14 17 -7
0 -24 10 -38 23 -14 12 -34 27 -44 33 -11 6 -20 21 -22 33 -3 15 -9 20 -20 17
-21 -7 -47 8 -38 22 3 5 -1 12 -9 16 -8 3 -15 11 -15 18 0 9 3 8 10 -2 8 -13
10 -12 10 3 0 9 5 17 11 17 5 0 7 5 4 10 -4 6 -11 8 -16 5 -5 -4 -5 4 1 19 12
32 -1 35 -15 4 -6 -12 -16 -24 -24 -26 -8 -3 -11 0 -7 7 15 24 -23 10 -39 -15
-13 -20 -14 -29 -5 -38 9 -8 11 -8 8 2 -2 8 7 18 20 23 30 11 27 -1 -6 -27
-19 -15 -33 -19 -47 -13 -11 4 -14 8 -7 8 18 1 15 28 -5 37 -10 4 -21 7 -24 6
-3 -1 -4 10 -1 23 5 29 24 32 43 8 8 -9 9 -14 4 -11 -6 4 -17 2 -25 -3 -11 -7
-8 -8 10 -6 17 3 26 11 28 26 2 15 9 21 18 17 8 -3 14 0 14 6 0 7 -15 9 -42 5
-24 -2 -37 -3 -30 0 13 5 17 33 3 33 -4 0 -20 -11 -35 -25 -32 -30 -31 -30
-33 -5 -1 14 4 20 18 20 10 0 19 7 19 15 0 13 -4 14 -22 3 -13 -7 -29 -11 -35
-10 -7 2 -26 -4 -44 -13 -21 -11 -29 -21 -25 -32 4 -9 -2 -25 -14 -38 -12 -12
-20 -29 -18 -36 2 -8 -4 -13 -14 -13 -12 1 -18 -9 -23 -37 -9 -50 -25 -60 -25
-15 0 19 6 37 13 39 9 4 9 6 -1 6 -10 1 -10 6 1 24 17 27 16 69 -1 73 -7 1 -8
0 -2 -3 5 -2 10 -11 10 -19 0 -19 -42 -35 -52 -21 -5 8 -16 3 -32 -12 -14 -14
-29 -21 -33 -18 -3 4 -1 7 5 7 7 0 12 5 12 12 0 6 7 20 17 30 9 10 11 18 5 18
-6 0 -15 -7 -20 -17 -5 -9 -24 -17 -41 -18 -34 -2 -39 6 -17 24 11 10 15 8 19
-6 3 -10 5 -2 6 17 0 23 -2 30 -8 21 -7 -11 -9 -11 -14 0 -4 11 -6 11 -6 1 -1
-15 -31 -48 -31 -35 0 5 5 14 12 21 9 9 8 12 -4 12 -9 0 -20 -5 -23 -10 -9
-14 -35 7 -35 27 0 13 3 13 15 3 18 -15 28 -9 20 12 -7 17 -45 13 -45 -4 0 -6
-7 -5 -15 2 -11 9 -15 9 -15 1 0 -9 -5 -9 -20 -1 -14 7 -26 8 -39 0 -14 -7
-21 -6 -24 3 -3 6 -6 2 -6 -10 -1 -13 3 -23 8 -23 5 0 11 -9 14 -20 3 -11 1
-20 -5 -20 -5 0 -6 -5 -3 -10 5 -8 11 -7 21 1 12 10 12 14 2 20 -9 6 -10 11
-2 19 15 15 54 21 54 8 0 -5 -6 -8 -13 -5 -10 4 -13 -2 -9 -18 3 -17 -2 -27
-20 -35 -34 -18 -33 -18 -9 -44 l23 -24 -21 -21 c-28 -28 -31 -27 -31 12 0 24
3 28 10 17 6 -9 10 -10 10 -3 0 18 -20 27 -33 14 -17 -17 -31 -13 -17 4 7 9 8
15 2 15 -8 0 -22 -22 -22 -35 0 -1 9 -5 20 -8 13 -3 18 -11 14 -20 -3 -9 2
-20 14 -26 26 -14 24 -64 -3 -70 -17 -3 -18 -1 -6 13 8 9 10 20 6 24 -4 4 -10
1 -12 -6 -4 -10 -9 -9 -24 4 -11 9 -22 14 -26 11 -4 -4 2 -14 13 -22 19 -14
19 -14 -1 -15 -18 -1 -18 -2 -3 -11 10 -5 15 -16 12 -24 -4 -8 -1 -15 5 -15
21 0 11 -21 -16 -32 -16 -6 -31 -11 -35 -10 -5 1 -8 -4 -8 -11 0 -9 10 -12 31
-9 19 3 34 0 39 -8 7 -11 12 -10 25 3 18 19 35 14 35 -10 0 -13 -9 -15 -44
-11 -41 5 -43 4 -28 -12 8 -10 21 -16 28 -13 8 3 14 0 14 -6 0 -6 -4 -11 -10
-11 -5 0 -10 -4 -10 -10 0 -5 7 -10 15 -10 24 0 18 -17 -7 -22 -40 -6 -66 2
-72 25 -3 12 -1 26 4 31 16 16 11 30 -5 16 -10 -9 -15 -9 -15 -1 0 15 -25 14
-39 -3 -9 -11 -5 -16 19 -26 39 -16 39 -28 0 -22 l-31 4 7 -40 c6 -38 5 -40
-15 -35 -17 4 -21 1 -21 -21 0 -30 2 -29 -39 -15 -23 8 -29 15 -22 22 6 6 11
18 11 26 0 13 -2 14 -9 2 -12 -19 -30 -5 -24 19 3 11 8 20 12 20 3 0 7 11 7
24 1 19 -4 25 -26 28 -18 3 -26 0 -24 -7 3 -7 -2 -17 -10 -24 -12 -10 -17 -7
-30 18 -9 16 -16 38 -16 48 0 10 -6 27 -13 38 -8 11 -19 47 -26 80 -15 65 -33
99 -47 87 -4 -4 -3 0 3 9 10 12 9 26 -2 62 -8 27 -10 47 -5 47 6 0 10 12 9 28
0 15 -3 21 -6 12 -8 -21 -53 -65 -53 -52 0 11 35 75 60 108 30 41 168 124 320
192 120 54 261 112 272 112 7 0 26 7 41 15 49 25 226 82 427 135 213 57 344
95 375 109 11 5 45 19 75 30 30 11 87 35 125 53 39 19 96 43 128 53 33 11 57
25 57 33 0 10 7 13 21 9 11 -3 35 1 52 9 20 10 24 13 10 10 -27 -5 -42 12 -22
25 28 17 -1 8 -37 -12 -20 -11 -57 -27 -83 -35 -25 -9 -95 -40 -155 -71 -174
-87 -196 -94 -676 -212 -135 -33 -419 -130 -506 -173 -34 -16 -68 -30 -77 -32
-8 -1 -21 -7 -28 -13 -8 -6 -48 -25 -89 -43 -41 -18 -87 -41 -101 -51 -15 -10
-37 -23 -50 -28 -37 -14 -149 -120 -149 -141 0 -10 -9 -25 -19 -32 -14 -10
-18 -21 -14 -41 3 -15 9 -30 14 -33 5 -3 9 -12 9 -21 0 -9 8 -25 17 -35 9 -10
18 -33 18 -51 2 -39 14 -69 32 -80 7 -4 13 -21 13 -37 0 -16 5 -32 10 -35 6
-4 10 -14 9 -23 -1 -10 0 -19 1 -22 1 -3 4 -16 6 -30 2 -13 10 -27 16 -31 9
-6 9 -15 -1 -36 -8 -16 -16 -23 -18 -15 -3 6 -9 12 -15 12 -5 0 -8 -6 -5 -12
2 -7 -2 -21 -11 -31 -18 -21 -10 -34 10 -14 19 20 58 39 58 29 0 -4 -5 -13
-12 -20 -9 -9 -9 -12 3 -12 9 0 16 -6 16 -14 0 -10 -9 -11 -34 -6 -19 5 -33 4
-33 -1 0 -5 14 -12 30 -16 36 -7 46 -18 24 -27 -9 -3 -25 0 -36 8 -11 8 -27
12 -34 9 -8 -3 -14 0 -14 6 0 6 -7 11 -15 11 -8 0 -15 5 -15 10 0 6 5 10 10
10 6 0 10 14 10 30 0 17 -4 30 -10 30 -5 0 -10 7 -10 15 0 7 -8 19 -18 24 -9
6 -12 11 -4 11 10 0 10 4 0 20 -7 11 -18 20 -23 20 -6 0 -11 15 -12 33 0 41
-11 67 -29 67 -9 0 -14 -11 -14 -30 0 -16 -5 -30 -11 -30 -6 0 -8 7 -5 16 7
19 -10 44 -31 44 -12 0 -13 -13 -7 -72 5 -40 7 -84 7 -98 -1 -14 3 -30 7 -35
5 -6 5 -17 0 -25 -5 -9 -5 -20 2 -28 9 -10 8 -16 -1 -22 -9 -5 -10 -9 -2 -14
13 -8 5 -26 -10 -26 -6 0 -8 4 -5 9 4 5 -3 7 -14 4 -22 -6 -22 -39 0 -53 9 -5
11 -19 6 -45 -4 -20 -3 -42 2 -48 4 -7 9 -21 11 -32 6 -59 5 -68 -6 -72 -7 -3
-16 22 -24 67 -10 59 -17 73 -35 80 -21 8 -44 32 -27 29 4 -1 16 1 26 6 14 6
16 15 11 44 -11 63 -34 67 -48 9 -5 -22 -3 -28 9 -28 9 0 13 -5 10 -11 -4 -5
-12 -8 -18 -6 -7 2 -17 -13 -24 -32 -15 -44 -16 -51 -3 -51 6 0 10 7 10 15 0
10 10 15 29 15 33 0 51 -17 27 -26 -19 -7 -21 -35 -5 -51 9 -9 6 -10 -11 -6
-18 5 -21 3 -15 -7 6 -10 4 -12 -11 -6 -10 5 -27 11 -36 13 -10 3 -15 10 -12
15 4 5 2 20 -4 31 -5 12 -16 37 -25 55 -12 29 -15 31 -20 13 -4 -15 -10 -18
-28 -14 -24 6 -24 6 3 -21 15 -15 25 -33 22 -41 -3 -8 10 -20 35 -31 40 -19
50 -40 17 -38 -9 1 -16 -4 -16 -12 0 -8 4 -14 9 -14 5 0 11 -6 14 -12 2 -7 3
-5 2 5 -2 9 1 17 6 17 5 0 9 -16 9 -35 0 -28 3 -33 17 -28 10 4 14 2 10 -4
-10 -16 3 -44 16 -36 7 4 8 0 4 -12 -5 -12 1 -26 18 -43 14 -13 25 -29 25 -34
0 -5 10 -6 21 -3 15 5 19 4 15 -4 -4 -6 -2 -11 3 -11 6 0 11 7 11 16 0 13 4
11 18 -7 11 -13 19 -31 19 -40 0 -8 13 -43 29 -77 20 -42 36 -63 51 -67 13 -3
23 -10 23 -15 0 -14 92 -120 104 -120 4 0 22 -16 42 -35 19 -19 39 -35 44 -35
6 0 10 -4 10 -9 0 -6 13 -24 30 -42 16 -18 27 -36 24 -41 -3 -4 5 -13 18 -19
13 -5 34 -28 48 -50 17 -27 34 -42 53 -46 16 -3 31 -12 34 -19 3 -8 11 -14 19
-14 8 0 24 -11 35 -24 12 -13 32 -27 46 -31 14 -3 23 -8 20 -11 -6 -7 66 -74
80 -74 5 0 24 -16 43 -35 19 -19 39 -35 46 -35 7 0 14 -3 16 -8 6 -14 85 -71
114 -83 16 -7 39 -11 52 -10 14 0 22 -5 22 -15 0 -10 6 -14 14 -11 8 3 16 3
18 -1 11 -24 184 -125 234 -135 5 -2 23 -13 39 -25 16 -13 34 -21 42 -18 7 3
19 -4 26 -14 8 -11 28 -23 45 -26 18 -4 32 -10 32 -14 0 -5 23 -13 50 -20 28
-7 52 -16 55 -20 3 -5 26 -12 50 -16 25 -3 50 -14 55 -23 9 -14 14 -12 38 15
15 17 60 69 101 115 41 46 129 143 196 214 67 72 148 159 180 195 75 82 157
153 215 184 52 28 210 70 323 85 43 6 132 11 197 11 108 0 120 -2 130 -19 15
-29 3 -47 -56 -84 -29 -19 -50 -38 -46 -42 4 -4 -2 -6 -14 -3 -12 3 -37 -5
-60 -18 -21 -13 -34 -24 -29 -24 6 0 -9 -9 -32 -20 -24 -10 -43 -24 -43 -30 0
-5 -7 -10 -15 -10 -9 0 -12 -6 -9 -15 4 -10 0 -15 -16 -15 -14 0 -19 4 -15 12
4 7 -2 3 -12 -8 -10 -12 -28 -25 -40 -29 -13 -3 -23 -10 -23 -15 0 -5 -24 -20
-53 -34 -29 -13 -61 -34 -72 -46 -10 -11 -35 -30 -54 -42 -31 -19 -97 -72
-191 -155 -14 -12 -79 -66 -145 -121 -118 -98 -196 -167 -166 -146 9 6 76 60
149 120 74 60 157 128 185 151 29 23 68 55 87 70 19 16 58 47 86 69 89 71 205
106 459 138 286 35 462 29 667 -25 62 -16 176 -41 253 -55 169 -31 409 -85
590 -134 101 -27 455 -134 514 -155 51 -18 85 -21 61 -5 -13 9 -13 10 0 10 28
0 302 144 407 213 55 37 105 67 110 67 5 0 20 11 33 25 13 14 28 25 32 25 5 0
42 24 81 53 40 30 95 69 122 88 99 67 257 214 430 399 89 95 112 123 155 187
19 29 44 57 56 64 12 6 31 31 43 55 13 24 29 44 38 44 9 0 13 6 10 14 -4 9 -1
13 6 10 7 -2 22 18 36 48 25 55 26 57 37 126 7 47 12 49 20 6 6 -35 14 -44 14
-18 0 10 7 32 16 49 9 18 12 39 8 55 -4 14 -8 33 -9 42 -3 26 -15 35 -15 10 0
-27 -10 -52 -21 -52 -9 0 -8 71 1 80 3 3 1 43 -4 89 -6 59 -11 79 -18 70 -7
-10 -8 -7 -4 11 7 30 -12 148 -25 156 -5 3 -9 -5 -9 -18 -1 -15 -7 -5 -19 27
-25 69 -43 102 -90 160 -22 28 -53 65 -68 84 -16 19 -54 61 -85 94 -31 32 -57
62 -57 65 0 4 -9 8 -20 10 -11 2 -23 12 -26 23 -4 10 -9 19 -13 19 -4 0 -19
10 -34 23 -61 52 -69 57 -76 57 -4 0 -39 22 -77 48 -78 54 -245 146 -245 136
0 -4 -8 -1 -17 7 -10 8 -44 28 -76 43 -31 16 -60 33 -63 37 -3 5 -10 6 -16 3
-6 -4 -16 0 -22 8 -12 15 -95 58 -113 58 -6 0 -30 15 -52 34 -23 19 -50 38
-61 41 -11 4 -20 11 -20 16 0 5 -12 9 -26 9 -37 0 -64 17 -57 36 5 14 3 14
-15 3 -19 -12 -24 -11 -38 9 -17 25 -88 65 -98 55 -4 -4 -9 3 -13 15 -3 13
-11 21 -17 19 -6 -2 -17 3 -24 12 -8 9 -11 10 -7 4 4 -8 0 -13 -11 -13 -13 0
-14 -3 -5 -14 10 -11 6 -13 -21 -11 -25 2 -39 11 -56 36 -55 81 -118 127 -150
110 -13 -7 -25 -1 -52 26 -50 50 -176 143 -193 143 -2 0 -7 -3 -10 -7z m451
-354 c-3 -8 -7 -3 -11 10 -4 17 -3 21 5 13 5 -5 8 -16 6 -23z m-3876 -811
c-27 -7 -32 -13 -27 -28 4 -14 1 -22 -10 -26 -18 -7 -43 11 -31 23 4 4 11 1
15 -6 5 -8 11 -9 15 -3 3 6 0 12 -6 15 -9 2 -5 12 12 30 20 21 28 23 45 14 19
-10 18 -11 -13 -19z m48 -32 c0 -11 -19 -15 -25 -6 -3 5 1 10 9 10 9 0 16 -2
16 -4z m-212 -34 c-2 -9 -13 -18 -25 -20 -17 -2 -20 1 -17 15 7 24 47 29 42 5z
m172 8 c0 -5 -4 -10 -10 -10 -5 0 -10 5 -10 10 0 6 5 10 10 10 6 0 10 -4 10
-10z m-97 -45 c3 -16 0 -24 -7 -22 -14 4 -21 47 -8 47 5 0 12 -11 15 -25z m52
5 c3 -5 -1 -10 -10 -10 -9 0 -13 5 -10 10 3 6 8 10 10 10 2 0 7 -4 10 -10z
m232 -7 c3 -7 -3 -9 -16 -6 -12 3 -21 10 -21 15 0 13 32 6 37 -9z m693 13 c0
-3 -4 -8 -10 -11 -5 -3 -10 -1 -10 4 0 6 5 11 10 11 6 0 10 -2 10 -4z m-1050
-31 c0 -11 -45 -45 -59 -45 -12 1 -11 3 4 12 30 16 31 18 15 28 -11 7 -8 10
13 10 15 0 27 -2 27 -5z m390 -16 c0 -5 -4 -9 -10 -9 -5 0 -10 7 -10 16 0 8 5
12 10 9 6 -3 10 -10 10 -16z m-50 -14 c0 -8 -4 -15 -10 -15 -5 0 -7 7 -4 15 4
8 8 15 10 15 2 0 4 -7 4 -15z m77 1 c-4 -9 2 -16 15 -19 14 -4 19 -11 15 -21
-7 -17 8 -22 18 -6 13 20 25 9 25 -23 0 -38 -22 -73 -39 -63 -6 4 -9 12 -6 17
6 9 -7 13 -35 10 -11 -1 -11 1 3 9 23 15 22 32 -6 62 -16 17 -20 28 -12 36 14
16 28 15 22 -2z m-390 -12 c-3 -4 1 -13 9 -21 13 -14 16 -13 28 2 7 10 18 15
24 11 6 -3 13 -2 17 4 3 5 16 10 28 9 20 -1 19 -2 -5 -12 -16 -6 -28 -17 -28
-24 0 -7 -4 -13 -10 -13 -18 0 -11 -18 10 -25 29 -9 25 -27 -5 -19 -16 4 -35
0 -51 -11 -30 -19 -30 -19 -39 18 -7 26 7 38 20 17 8 -13 25 -13 25 -1 0 6
-12 16 -27 23 -33 16 -40 35 -16 41 10 3 20 5 22 6 2 0 2 -2 -2 -5z m324 -47
c-8 -8 -11 -7 -11 4 0 20 13 34 18 19 3 -7 -1 -17 -7 -23z m-645 -22 c-1 -30
-4 -33 -23 -28 -14 3 -23 1 -23 -6 0 -6 -4 -11 -9 -11 -16 0 1 49 20 55 10 4
19 11 19 16 0 5 4 9 8 9 5 0 8 -16 8 -35z m461 19 c-3 -3 -12 -4 -19 -1 -8 3
-5 6 6 6 11 1 17 -2 13 -5z m-432 -64 c3 -5 1 -10 -4 -10 -6 0 -11 5 -11 10 0
6 2 10 4 10 3 0 8 -4 11 -10z m205 0 c0 -5 -7 -10 -15 -10 -8 0 -15 5 -15 10
0 6 7 10 15 10 8 0 15 -4 15 -10z m180 -5 c0 -8 6 -15 14 -15 8 0 18 -4 21
-10 12 -20 -31 -9 -60 15 l-30 25 28 0 c17 0 27 -5 27 -15z m74 0 c4 -10 -1
-15 -14 -15 -20 0 -26 11 -13 23 10 11 20 8 27 -8z m2373 -46 c2 -28 -1 -39
-11 -39 -9 0 -13 10 -10 33 1 17 3 38 3 46 2 29 15 -2 18 -40z m-2162 29 c14
-6 25 -18 25 -27 -1 -15 -2 -15 -13 0 -7 9 -23 16 -36 15 -13 -1 -26 5 -28 12
-6 15 18 16 52 0z m72 -31 c-1 -21 -13 -37 -30 -37 -4 0 -3 8 2 19 6 10 8 21
5 24 -9 8 6 28 16 22 5 -3 8 -15 7 -28z m-397 -3 c0 -8 -4 -12 -10 -9 -5 3
-10 10 -10 16 0 5 5 9 10 9 6 0 10 -7 10 -16z m2771 3 c-1 -12 -15 -9 -19 4
-3 6 1 10 8 8 6 -3 11 -8 11 -12z m-1711 -7 c0 -5 -9 -10 -20 -10 -11 0 -20 5
-20 10 0 6 9 10 20 10 11 0 20 -4 20 -10z m1770 -36 c0 -20 -7 -17 -20 6 -9
16 -8 18 5 14 8 -4 15 -12 15 -20z m-3180 1 c-7 -8 -17 -12 -22 -9 -6 4 -5 10
3 15 22 14 33 10 19 -6z m1098 -4 c3 -8 -1 -12 -9 -9 -7 2 -15 10 -17 17 -3 8
1 12 9 9 7 -2 15 -10 17 -17z m472 15 c0 -9 -39 -13 -51 -5 -10 6 -4 9 19 9
17 0 32 -2 32 -4z m1560 -16 c0 -5 -2 -10 -4 -10 -3 0 -8 5 -11 10 -3 6 -1 10
4 10 6 0 11 -4 11 -10z m-3455 -19 c-3 -6 -11 -11 -17 -11 -6 0 -6 6 2 15 14
17 26 13 15 -4z m3331 -7 c-4 -10 4 -14 29 -14 19 0 35 -4 35 -9 0 -9 -67 -20
-75 -12 -10 10 -5 62 6 56 6 -4 8 -13 5 -21z m-1916 -4 c0 -5 -5 -10 -11 -10
-5 0 -7 5 -4 10 3 6 8 10 11 10 2 0 4 -4 4 -10z m-500 -10 c0 -5 -7 -10 -15
-10 -8 0 -15 5 -15 10 0 6 7 10 15 10 8 0 15 -4 15 -10z m2560 -11 c0 -6 -4
-7 -10 -4 -5 3 -10 11 -10 16 0 6 5 7 10 4 6 -3 10 -11 10 -16z m40 11 c0 -5
-4 -10 -10 -10 -5 0 -10 5 -10 10 0 6 5 10 10 10 6 0 10 -4 10 -10z m-3160
-10 c0 -5 -5 -10 -11 -10 -5 0 -7 5 -4 10 3 6 8 10 11 10 2 0 4 -4 4 -10z
m3075 0 c3 -5 -1 -10 -9 -10 -9 0 -16 5 -16 10 0 6 4 10 9 10 6 0 13 -4 16
-10z m492 -16 c-3 -3 -12 -4 -19 -1 -8 3 -5 6 6 6 11 1 17 -2 13 -5z m-280
-10 c-3 -3 -12 -4 -19 -1 -8 3 -5 6 6 6 11 1 17 -2 13 -5z m-1866 -63 c6 -43
4 -48 -10 -46 -9 2 -19 4 -23 4 -10 1 -20 39 -14 50 6 10 45 3 47 -8z m-1741
-11 c0 -5 -5 -10 -11 -10 -5 0 -7 5 -4 10 3 6 8 10 11 10 2 0 4 -4 4 -10z
m1676 -25 c14 -13 13 -15 -5 -15 -12 0 -21 -4 -21 -10 0 -5 -5 -10 -11 -10 -5
0 -7 5 -3 11 4 7 -3 10 -22 7 -18 -2 -29 2 -31 12 -3 10 -2 11 4 3 6 -8 14 -8
33 2 32 18 38 18 56 0z m-1346 -32 c0 -14 -36 -18 -44 -4 -8 12 0 17 24 17 11
0 20 -6 20 -13z m1204 -4 c-8 -14 -24 -10 -24 6 0 9 6 12 15 9 8 -4 12 -10 9
-15z m-1641 -9 c3 -11 1 -20 -4 -20 -5 0 -4 -9 3 -20 10 -16 10 -22 0 -32 -11
-11 -12 -10 -8 2 3 9 -8 25 -27 40 -24 19 -29 21 -24 7 3 -9 5 -17 3 -17 -3 0
-11 -3 -20 -6 -21 -8 -21 13 0 33 13 13 20 14 34 5 15 -9 17 -8 13 9 -4 12 0
19 10 19 8 0 17 -9 20 -20z m1841 10 c-5 -5 -22 -12 -39 -16 -25 -6 -28 -5
-18 7 6 8 23 15 38 16 15 0 23 -3 19 -7z m-104 -20 c0 -5 -2 -10 -4 -10 -3 0
-8 5 -11 10 -3 6 -1 10 4 10 6 0 11 -4 11 -10z m-925 -10 c-3 -5 -12 -10 -18
-10 -7 0 -6 4 3 10 19 12 23 12 15 0z m862 -20 c1 -14 0 -18 -3 -10 -4 8 -14
21 -23 28 -14 13 -14 13 4 10 13 -2 21 -12 22 -28z m213 16 c0 -8 6 -16 13
-19 6 -2 9 -8 5 -12 -4 -4 -14 0 -23 9 -9 9 -21 16 -26 16 -6 0 -7 5 -4 10 9
15 35 12 35 -4z m-2172 -41 c-6 -14 -13 -23 -16 -21 -7 7 9 46 18 46 5 0 4
-11 -2 -25z m792 5 c0 -5 -2 -10 -4 -10 -3 0 -8 5 -11 10 -3 6 -1 10 4 10 6 0
11 -4 11 -10z m388 -2 c-6 -18 -28 -21 -28 -4 0 9 7 16 16 16 9 0 14 -5 12
-12z m806 -22 c-7 -19 -34 -29 -34 -12 0 16 10 26 26 26 8 0 11 -6 8 -14z
m-1282 -26 c-12 -12 -22 -19 -22 -16 0 2 -3 12 -6 20 -4 12 -2 15 9 10 8 -3
18 0 22 6 4 6 10 9 13 6 3 -4 -4 -15 -16 -26z m52 2 c-7 -4 -13 -16 -15 -27
-5 -22 -21 -24 -28 -4 -2 7 1 9 9 4 10 -6 12 -4 7 8 -5 15 5 25 28 26 6 0 5
-3 -1 -7z m-724 -27 c-7 -9 -15 -13 -18 -10 -3 2 1 11 8 20 7 9 15 13 18 10 3
-2 -1 -11 -8 -20z m280 11 c0 -2 -9 -6 -20 -9 -11 -3 -20 -1 -20 4 0 5 9 9 20
9 11 0 20 -2 20 -4z m450 -56 c0 -5 -2 -10 -4 -10 -3 0 -8 5 -11 10 -3 6 -1
10 4 10 6 0 11 -4 11 -10z m40 -25 c0 -8 -7 -15 -15 -15 -9 0 -12 6 -9 15 4 8
10 15 15 15 5 0 9 -7 9 -15z m1450 5 c0 -5 -7 -10 -16 -10 -8 0 -12 5 -9 10 3
6 10 10 16 10 5 0 9 -4 9 -10z m160 -30 c0 -5 -7 -10 -16 -10 -8 0 -12 5 -9
10 3 6 10 10 16 10 5 0 9 -4 9 -10z m-1100 -19 c0 -11 5 -21 11 -23 6 -2 9
-13 6 -23 -5 -20 -5 -19 -12 0 -3 12 -16 27 -27 34 -18 11 -22 11 -30 -3 -11
-20 -28 -12 -28 15 0 16 7 19 40 19 33 0 40 -3 40 -19z m785 9 c3 -6 -1 -13
-10 -16 -19 -8 -30 0 -20 15 8 14 22 14 30 1z m242 4 c-3 -3 -12 -4 -19 -1 -8
3 -5 6 6 6 11 1 17 -2 13 -5z m-2350 -51 c-4 -17 -4 -17 -12 0 -4 9 -4 25 0
35 8 16 8 16 12 0 3 -10 3 -26 0 -35z m113 39 c0 -14 -11 -21 -26 -15 -21 8
-17 23 6 23 11 0 20 -4 20 -8z m-50 -6 c0 -3 -4 -8 -10 -11 -5 -3 -10 -1 -10
4 0 6 5 11 10 11 6 0 10 -2 10 -4z m720 -5 c0 -6 -4 -13 -10 -16 -5 -3 -10 1
-10 9 0 9 5 16 10 16 6 0 10 -4 10 -9z m87 -13 c-3 -8 -6 -5 -6 6 -1 11 2 17
5 13 3 -3 4 -12 1 -19z m548 -11 c4 -12 7 -26 6 -30 -1 -5 3 -5 9 -2 6 4 9 13
6 20 -2 7 5 15 17 19 16 4 30 -3 52 -24 29 -29 29 -30 10 -44 -11 -8 -17 -18
-13 -22 10 -9 38 15 38 32 0 16 16 19 24 5 3 -5 -1 -11 -9 -15 -8 -3 -15 -14
-15 -25 0 -15 -5 -19 -17 -14 -12 5 -15 2 -10 -10 9 -25 -25 -22 -48 3 -10 12
-24 19 -31 16 -21 -8 -63 31 -57 54 4 14 0 20 -11 20 -10 0 -16 8 -16 21 0 18
2 19 15 9 12 -10 15 -10 15 3 0 23 26 10 35 -16z m571 6 c-10 -10 -19 5 -10
18 6 11 8 11 12 0 2 -7 1 -15 -2 -18z m-171 -2 c3 -6 -4 -9 -15 -8 -11 1 -20
5 -20 9 0 11 28 10 35 -1z m655 -1 c0 -5 -4 -10 -10 -10 -5 0 -10 5 -10 10 0
6 5 10 10 10 6 0 10 -4 10 -10z m-610 -21 c0 -5 -4 -9 -10 -9 -5 0 -10 7 -10
16 0 8 5 12 10 9 6 -3 10 -10 10 -16z m575 11 c3 -5 1 -10 -4 -10 -6 0 -11 5
-11 10 0 6 2 10 4 10 3 0 8 -4 11 -10z m-38 -33 c-2 -6 -9 -13 -17 -15 -8 -3
-11 1 -7 11 4 11 0 13 -14 10 -21 -6 -27 13 -6 20 17 6 49 -12 44 -26z m-2297
-22 c0 -5 -5 -3 -10 5 -5 8 -10 20 -10 25 0 6 5 3 10 -5 5 -8 10 -19 10 -25z
m1678 18 c-2 -9 -8 -18 -15 -20 -7 -3 -9 3 -6 16 6 25 26 28 21 4z m269 -3 c1
-14 -2 -18 -10 -13 -7 4 -25 6 -42 5 -29 -2 -29 -2 -11 13 29 22 61 19 63 -5z
m-1844 -9 c3 -14 1 -18 -9 -14 -9 3 -14 -2 -14 -16 0 -12 -4 -21 -10 -21 -5 0
-10 5 -10 10 0 6 -8 10 -17 11 -13 0 -14 2 -4 6 11 5 11 7 0 14 -12 8 -11 11
1 19 25 16 57 12 63 -9z m957 15 c0 -3 -4 -8 -10 -11 -5 -3 -10 -1 -10 4 0 6
5 11 10 11 6 0 10 -2 10 -4z m-1153 -28 c-3 -8 -6 -5 -6 6 -1 11 2 17 5 13 3
-3 4 -12 1 -19z m226 -32 c3 -8 -4 -18 -16 -23 -19 -9 -22 -7 -22 11 0 24 30
33 38 12z m1727 -2 c0 -2 -7 -4 -15 -4 -8 0 -15 4 -15 10 0 5 7 7 15 4 8 -4
15 -8 15 -10z m97 10 c-3 -3 -12 -4 -19 -1 -8 3 -5 6 6 6 11 1 17 -2 13 -5z
m-382 -23 c-3 -6 -18 -11 -33 -11 l-27 1 30 13 c32 14 41 13 30 -3z m105 4 c0
-8 -4 -15 -9 -15 -13 0 -22 16 -14 24 11 11 23 6 23 -9z m-430 -5 c0 -5 -5
-10 -11 -10 -5 0 -7 5 -4 10 3 6 8 10 11 10 2 0 4 -4 4 -10z m97 -12 c-3 -8
-6 -5 -6 6 -1 11 2 17 5 13 3 -3 4 -12 1 -19z m137 -13 c-7 -17 -20 -20 -29
-6 -3 5 3 12 12 14 10 3 19 5 20 6 1 0 0 -6 -3 -14z m251 5 c-11 -5 -27 -9
-35 -9 -9 0 -8 4 5 9 11 5 27 9 35 9 9 0 8 -4 -5 -9z m248 4 c9 -9 -14 -29
-40 -36 -16 -4 -23 -2 -23 7 0 23 48 44 63 29z m-203 -14 c0 -5 -4 -10 -10
-10 -5 0 -10 5 -10 10 0 6 5 10 10 10 6 0 10 -4 10 -10z m-1600 -4 c0 -3 -4
-8 -10 -11 -5 -3 -10 -1 -10 4 0 6 5 11 10 11 6 0 10 -2 10 -4z m1404 -15 c3
-5 -1 -14 -9 -21 -13 -10 -15 -9 -15 9 0 21 14 28 24 12z m56 -5 c0 -2 -8 -10
-17 -17 -16 -13 -17 -12 -4 4 13 16 21 21 21 13z m100 -26 c0 -5 -4 -10 -10
-10 -5 0 -10 5 -10 10 0 6 5 10 10 10 6 0 10 -4 10 -10z m-1540 -50 c0 -12 -3
-12 -16 2 -9 9 -13 21 -9 28 9 14 25 -5 25 -30z m1247 -12 c-3 -8 -6 -5 -6 6
-1 11 2 17 5 13 3 -3 4 -12 1 -19z m253 18 c0 -3 -4 -8 -10 -11 -5 -3 -10 -1
-10 4 0 6 5 11 10 11 6 0 10 -2 10 -4z m160 -10 c0 -3 -4 -8 -10 -11 -5 -3
-10 -1 -10 4 0 6 5 11 10 11 6 0 10 -2 10 -4z m30 -26 c0 -5 -7 -10 -15 -10
-8 0 -15 -4 -15 -10 0 -5 7 -10 15 -10 8 0 15 -4 15 -10 0 -16 -30 -12 -36 5
-4 8 -1 22 6 30 14 17 30 20 30 5z m-1749 -67 c-8 -15 -10 -15 -11 -2 0 17 10
32 18 25 2 -3 -1 -13 -7 -23z m1629 -63 c0 -5 -5 -10 -11 -10 -5 0 -7 5 -4 10
3 6 8 10 11 10 2 0 4 -4 4 -10z m190 -51 c0 -11 -27 -12 -34 0 -3 4 -3 11 0
14 8 8 34 -3 34 -14z m-135 -10 c4 -6 5 -13 2 -16 -8 -7 -47 7 -47 18 0 13 37
11 45 -2z m160 -29 c5 -8 11 -7 21 1 8 6 18 9 21 5 11 -11 -20 -26 -39 -20
-12 4 -21 -3 -30 -20 -7 -16 -19 -26 -33 -26 -17 0 -22 6 -22 29 0 26 2 28 19
18 16 -10 21 -9 29 6 11 19 25 22 34 7z m-160 -40 c3 -5 1 -10 -4 -10 -6 0
-11 5 -11 10 0 6 2 10 4 10 3 0 8 -4 11 -10z m315 0 c0 -5 -2 -10 -4 -10 -3 0
-8 5 -11 10 -3 6 -1 10 4 10 6 0 11 -4 11 -10z m-393 -6 c-3 -3 -12 -4 -19 -1
-8 3 -5 6 6 6 11 1 17 -2 13 -5z m118 -13 c-3 -6 -11 -11 -17 -11 -6 0 -6 6 2
15 14 17 26 13 15 -4z m153 -26 c-3 -3 -9 2 -12 12 -6 14 -5 15 5 6 7 -7 10
-15 7 -18z m-115 -2 c-7 -2 -19 -2 -25 0 -7 3 -2 5 12 5 14 0 19 -2 13 -5z
m75 -35 l12 -33 -20 25 c-21 27 -25 40 -12 40 4 0 13 -15 20 -32z m102 -28 c0
-5 -4 -10 -10 -10 -5 0 -10 5 -10 10 0 6 5 10 10 10 6 0 10 -4 10 -10z m117
-76 c-3 -3 -12 -4 -19 -1 -8 3 -5 6 6 6 11 1 17 -2 13 -5z m623 -54 c-8 -5
-19 -10 -25 -10 -5 0 -3 5 5 10 8 5 20 10 25 10 6 0 3 -5 -5 -10z m-680 -50
c0 -5 -7 -10 -16 -10 -8 0 -12 5 -9 10 3 6 10 10 16 10 5 0 9 -4 9 -10z m-153
-26 c-3 -3 -12 -4 -19 -1 -8 3 -5 6 6 6 11 1 17 -2 13 -5z"/>
<path d="M2627 2646 c-4 -10 -5 -21 -2 -24 9 -9 17 6 13 25 -3 17 -4 17 -11
-1z"/>
<path d="M2650 1980 c0 -5 5 -10 10 -10 6 0 10 5 10 10 0 6 -4 10 -10 10 -5 0
-10 -4 -10 -10z"/>
<path d="M2662 1939 c2 -7 10 -15 17 -17 8 -3 12 1 9 9 -2 7 -10 15 -17 17 -8
3 -12 -1 -9 -9z"/>
<path d="M6055 3990 c-3 -5 1 -10 9 -10 9 0 16 5 16 10 0 6 -4 10 -9 10 -6 0
-13 -4 -16 -10z"/>
<path d="M3448 3973 c6 -2 18 -2 25 0 6 3 1 5 -13 5 -14 0 -19 -2 -12 -5z"/>
<path d="M6628 3973 c7 -3 16 -2 19 1 4 3 -2 6 -13 5 -11 0 -14 -3 -6 -6z"/>
<path d="M6705 3970 c23 -9 284 -4 293 5 3 3 -66 5 -153 4 -88 -1 -150 -5
-140 -9z"/>
<path d="M5730 3939 c0 -5 5 -7 10 -4 6 3 10 8 10 11 0 2 -4 4 -10 4 -5 0 -10
-5 -10 -11z"/>
<path d="M6633 3883 c9 -2 23 -2 30 0 6 3 -1 5 -18 5 -16 0 -22 -2 -12 -5z"/>
<path d="M3398 3873 c7 -3 16 -2 19 1 4 3 -2 6 -13 5 -11 0 -14 -3 -6 -6z"/>
<path d="M3343 3863 c9 -2 23 -2 30 0 6 3 -1 5 -18 5 -16 0 -22 -2 -12 -5z"/>
<path d="M3441 3861 c-10 -6 1 -8 30 -4 24 3 46 7 48 9 10 9 -65 3 -78 -5z"/>
<path d="M3328 3803 c6 -2 18 -2 25 0 6 3 1 5 -13 5 -14 0 -19 -2 -12 -5z"/>
<path d="M3498 3803 c6 -2 18 -2 25 0 6 3 1 5 -13 5 -14 0 -19 -2 -12 -5z"/>
<path d="M6278 3803 c6 -2 18 -2 25 0 6 3 1 5 -13 5 -14 0 -19 -2 -12 -5z"/>
<path d="M6598 3793 c7 -3 16 -2 19 1 4 3 -2 6 -13 5 -11 0 -14 -3 -6 -6z"/>
<path d="M6648 3793 c12 -2 30 -2 40 0 9 3 -1 5 -23 4 -22 0 -30 -2 -17 -4z"/>
<path d="M6753 3793 c9 -2 25 -2 35 0 9 3 1 5 -18 5 -19 0 -27 -2 -17 -5z"/>
<path d="M3355 3775 c-22 -7 -31 -13 -20 -14 11 0 34 6 50 14 38 17 22 17 -30
0z"/>
<path d="M3441 3769 c-24 -5 -46 -11 -49 -14 -8 -8 121 7 138 16 20 11 -29 10
-89 -2z"/>
<path d="M3485 3740 c-15 -7 -9 -9 25 -9 33 -1 41 2 30 9 -18 12 -28 12 -55 0z"/>
<path d="M3425 3730 c-19 -8 -19 -9 3 -9 12 -1 22 4 22 9 0 6 -1 10 -2 9 -2 0
-12 -4 -23 -9z"/>
<path d="M3378 3713 c7 -3 16 -2 19 1 4 3 -2 6 -13 5 -11 0 -14 -3 -6 -6z"/>
<path d="M3468 3703 c18 -2 45 -2 60 0 15 2 0 4 -33 4 -33 0 -45 -2 -27 -4z"/>
<path d="M3288 3693 c-10 -2 -18 -9 -18 -14 0 -14 16 -11 30 6 7 8 11 14 9 14
-2 -1 -12 -3 -21 -6z"/>
<path d="M3441 3671 c-8 -5 10 -8 48 -6 34 1 64 5 68 9 10 9 -100 7 -116 -3z"/>
<path d="M4593 3660 c14 -11 35 -20 46 -20 12 0 21 -4 21 -9 0 -11 -82 -22
-95 -12 -5 4 -20 5 -33 2 l-23 -6 28 -31 c26 -29 39 -74 21 -74 -4 0 -8 -7 -8
-15 0 -8 4 -15 8 -15 5 0 8 -17 7 -37 0 -26 -6 -39 -17 -41 -20 -4 -32 -60
-17 -79 9 -11 8 -12 -5 -7 -11 4 -16 1 -16 -10 0 -9 -7 -16 -16 -16 -8 0 -13
-4 -10 -9 10 -16 56 -9 67 10 5 11 14 19 20 19 6 0 1 -14 -11 -30 -12 -17 -23
-49 -24 -71 -1 -22 -8 -44 -15 -48 -17 -11 2 -23 23 -15 18 7 21 -7 6 -22 -6
-6 -2 -10 12 -11 29 -3 47 -21 30 -32 -10 -6 -9 -10 7 -14 16 -4 21 0 21 15 0
14 5 18 16 14 12 -5 15 -2 10 11 -6 14 -2 13 17 -5 13 -12 29 -22 35 -22 7 0
9 -10 6 -29 -6 -26 -4 -29 15 -24 11 3 21 1 21 -5 0 -6 9 -8 21 -5 12 4 25 0
31 -8 7 -11 11 -11 15 -1 2 6 11 12 19 12 9 0 13 -4 10 -8 -12 -20 56 3 73 24
10 13 27 24 37 23 11 0 14 -3 7 -6 -17 -6 -16 -23 1 -23 8 0 19 14 25 30 10
31 31 41 31 15 0 -8 5 -15 10 -15 6 0 13 7 16 15 8 19 24 20 24 1 0 -18 67
-17 74 1 3 7 15 13 26 13 26 0 26 15 -1 33 -20 15 -20 16 26 61 25 25 50 46
55 46 20 0 9 28 -12 34 -21 6 -22 7 -6 19 21 17 13 53 -13 60 -29 8 -23 27 8
27 26 0 26 1 7 15 -10 8 -27 15 -36 15 -9 0 -20 5 -23 10 -4 7 3 9 22 5 l28
-7 -28 16 c-15 8 -34 13 -42 10 -19 -8 -32 25 -15 36 10 6 8 13 -9 31 -15 16
-24 20 -32 12 -8 -8 -19 -6 -40 4 -16 8 -37 12 -45 9 -8 -3 -17 1 -20 9 -4 8
-14 15 -23 14 -10 0 -11 -2 -3 -6 6 -2 12 -9 12 -15 0 -7 -20 -9 -60 -5 -35 4
-62 3 -65 -3 -3 -6 -11 -10 -16 -10 -6 0 -8 4 -5 9 8 12 -48 71 -67 71 -23 0
-77 33 -77 47 0 15 -56 43 -88 43 l-25 0 26 -20z m107 -80 c22 -11 50 -20 64
-20 29 0 36 -16 27 -61 -6 -32 -9 -34 -46 -33 -106 2 -117 4 -113 20 2 10 15
18 32 20 39 4 44 12 20 32 -27 21 -49 62 -34 62 6 0 28 -9 50 -20z m410 -104
c0 -3 -4 -8 -10 -11 -5 -3 -10 -1 -10 4 0 6 5 11 10 11 6 0 10 -2 10 -4z
m-485 -56 c3 -5 -1 -10 -9 -10 -9 0 -16 5 -16 10 0 6 4 10 9 10 6 0 13 -4 16
-10z m115 -4 c0 -3 -4 -8 -10 -11 -5 -3 -10 -1 -10 4 0 6 5 11 10 11 6 0 10
-2 10 -4z m430 -46 c0 -5 -7 -10 -15 -10 -8 0 -15 5 -15 10 0 6 7 10 15 10 8
0 15 -4 15 -10z m50 -139 c0 -5 -7 -11 -15 -15 -15 -5 -20 5 -8 17 9 10 23 9
23 -2z m-540 -65 c0 -2 -9 -6 -20 -9 -11 -3 -18 -1 -14 4 5 9 34 13 34 5z"/>
<path d="M4732 3521 c-11 -7 -11 -9 0 -13 18 -7 39 2 32 13 -6 11 -15 11 -32
0z"/>
<path d="M3294 3654 c-18 -14 -18 -15 6 -8 14 3 32 10 40 15 12 7 11 8 -6 9
-11 0 -29 -7 -40 -16z"/>
<path d="M3375 3650 c-13 -5 -14 -9 -5 -9 8 0 24 4 35 9 13 5 14 9 5 9 -8 0
-24 -4 -35 -9z"/>
<path d="M3425 3634 c-58 -21 -66 -35 -10 -18 27 7 70 14 97 14 26 0 48 5 48
10 0 15 -89 11 -135 -6z"/>
<path d="M3305 3620 c-8 -13 5 -13 25 0 13 8 13 10 -2 10 -9 0 -20 -4 -23 -10z"/>
<path d="M3469 3610 c-45 -8 -115 -37 -107 -46 2 -2 29 5 59 16 61 23 69 24
69 11 0 -5 -13 -12 -30 -16 -16 -3 -47 -15 -69 -26 -22 -10 -45 -19 -51 -19
-5 0 -10 -5 -10 -11 0 -12 30 -4 80 22 20 11 54 19 80 18 l45 0 -50 -14 c-84
-23 -149 -55 -136 -68 8 -8 14 -7 23 5 15 20 109 48 152 47 26 -1 23 -3 -19
-14 -66 -17 -147 -54 -140 -65 3 -4 27 2 53 15 59 29 122 42 122 26 0 -6 -8
-11 -19 -11 -27 0 -81 -21 -81 -31 0 -5 12 -4 26 1 14 6 40 10 57 9 l32 -1
-32 -8 c-32 -7 -67 -29 -60 -37 2 -2 17 2 33 8 16 6 48 11 72 10 47 0 53 5 20
19 -18 7 -19 9 -5 9 15 1 16 4 5 24 -7 12 -17 25 -23 29 -6 5 -5 8 3 8 20 0
14 20 -10 30 -18 7 -19 9 -5 9 9 1 17 6 17 11 0 9 -23 14 -57 13 -7 -1 -13 4
-13 9 0 5 12 9 28 8 40 -3 49 0 27 10 -23 10 -26 10 -86 0z"/>
<path d="M3315 3589 c-11 -17 1 -21 15 -4 8 9 8 15 2 15 -6 0 -14 -5 -17 -11z"/>
<path d="M3320 3550 c0 -5 5 -10 10 -10 6 0 10 5 10 10 0 6 -4 10 -10 10 -5 0
-10 -4 -10 -10z"/>
<path d="M5130 3535 c0 -8 5 -15 10 -15 6 0 10 7 10 15 0 8 -4 15 -10 15 -5 0
-10 -7 -10 -15z"/>
<path d="M3403 3438 c-27 -13 -27 -17 -8 -42 13 -17 15 -17 37 -1 l23 17 -27
-6 c-32 -7 -35 0 -11 26 18 20 17 21 -14 6z"/>
<path d="M5230 3420 c0 -5 5 -10 11 -10 5 0 7 5 4 10 -3 6 -8 10 -11 10 -2 0
-4 -4 -4 -10z"/>
<path d="M3513 3409 c-18 -5 -33 -16 -33 -23 0 -11 10 -10 51 5 28 11 60 17
71 13 14 -4 18 -2 14 5 -8 13 -58 13 -103 0z"/>
<path d="M3530 3370 c-25 -9 -54 -21 -64 -25 -16 -7 -18 -5 -13 8 5 12 1 17
-13 17 -26 0 -25 -6 6 -52 28 -40 39 -46 47 -25 2 6 31 21 63 31 73 24 94 40
39 30 -22 -4 -59 -17 -82 -30 -23 -13 -45 -19 -48 -15 -12 21 82 61 144 61 27
0 32 3 21 10 -21 14 -48 11 -100 -10z"/>
<path d="M1805 3310 c-3 -5 -1 -10 4 -10 6 0 11 5 11 10 0 6 -2 10 -4 10 -3 0
-8 -4 -11 -10z"/>
<path d="M3540 3294 c-53 -30 -55 -32 -48 -40 4 -3 17 2 31 10 13 9 49 25 78
36 52 19 53 19 19 20 -20 0 -55 -12 -80 -26z"/>
<path d="M3190 3285 c-11 -13 -10 -14 4 -9 9 3 16 10 16 15 0 13 -6 11 -20 -6z"/>
<path d="M3635 3291 c-34 -9 -70 -26 -101 -51 -21 -16 -21 -17 -4 -40 l19 -25
18 22 c11 12 46 30 78 41 53 18 56 21 27 21 -19 1 -51 -11 -79 -28 -26 -16
-51 -27 -56 -24 -17 10 25 40 83 59 33 10 60 22 60 26 0 9 -3 9 -45 -1z"/>
<path d="M3282 3223 c-10 -17 -9 -22 4 -27 9 -3 25 1 37 10 l22 16 -22 -6
c-16 -5 -22 -2 -25 11 -3 16 -5 16 -16 -4z"/>
<path d="M4507 3234 c-3 -3 -3 -13 0 -21 5 -12 7 -12 14 -1 15 23 4 40 -14 22z"/>
<path d="M3642 3215 c-18 -8 -35 -21 -38 -30 -3 -8 -15 -15 -25 -15 -24 0 -24
-12 0 -34 18 -16 22 -15 81 23 35 23 68 41 73 41 6 0 8 3 5 6 -8 8 -92 -32
-108 -51 -14 -17 -40 -20 -40 -6 0 14 59 56 95 69 21 7 24 11 10 11 -11 0 -35
-6 -53 -14z"/>
<path d="M3485 3180 c-3 -5 1 -10 10 -10 9 0 13 5 10 10 -3 6 -8 10 -10 10 -2
0 -7 -4 -10 -10z"/>
<path d="M3704 3155 c-27 -14 -59 -33 -72 -43 l-24 -18 102 -97 c56 -53 106
-97 111 -97 4 0 14 10 20 23 7 12 23 32 37 45 13 13 22 26 19 28 -3 3 -22 -13
-43 -36 -24 -27 -41 -37 -47 -31 -11 11 26 60 80 103 20 15 29 28 22 28 -8 0
-41 -25 -72 -56 -39 -38 -62 -53 -68 -47 -7 7 11 30 52 68 45 41 54 53 32 42
-17 -9 -46 -32 -64 -52 -35 -36 -59 -45 -59 -21 0 8 29 36 65 62 36 26 63 50
60 52 -6 7 -77 -41 -109 -73 -28 -28 -46 -32 -46 -10 0 8 -7 15 -15 15 -23 0
-18 21 13 53 21 24 23 27 6 19 -11 -6 -26 -18 -34 -26 -15 -20 -30 -21 -30 -2
0 17 73 67 120 83 23 7 28 12 14 12 -11 1 -42 -10 -70 -24z"/>
<path d="M3530 3117 c0 -9 7 -17 15 -17 8 0 15 -7 15 -15 0 -7 6 -18 13 -22 8
-4 16 -16 20 -25 3 -10 15 -18 26 -18 14 0 19 -5 15 -15 -4 -8 -1 -15 4 -15 6
0 27 -16 48 -35 20 -19 41 -35 45 -35 5 0 9 -7 9 -15 0 -8 7 -15 15 -15 20 0
19 17 -1 28 -9 5 -63 56 -120 112 -63 63 -104 97 -104 87z"/>
<path d="M3740 3085 c-19 -14 -27 -25 -19 -25 9 0 26 11 39 25 13 14 21 25 19
25 -3 0 -20 -11 -39 -25z"/>
<path d="M2290 3070 c-12 -8 -11 -10 8 -10 12 0 22 5 22 10 0 13 -11 13 -30 0z"/>
<path d="M4650 3066 c0 -18 17 -29 30 -21 8 5 7 11 -1 21 -15 18 -29 18 -29 0z"/>
<path d="M2353 3053 c9 -9 20 -13 24 -9 4 4 1 11 -7 16 -25 16 -35 11 -17 -7z"/>
<path d="M3143 3050 c-1 -11 4 -20 12 -20 20 0 30 21 14 31 -21 13 -25 11 -26
-11z"/>
<path d="M1256 3010 c8 -52 9 -54 23 -46 6 4 6 17 -1 39 -18 53 -30 57 -22 7z"/>
<path d="M1291 3034 c0 -11 3 -14 6 -6 3 7 2 16 -1 19 -3 4 -6 -2 -5 -13z"/>
<path d="M3255 3040 c-3 -5 1 -10 10 -10 9 0 13 5 10 10 -3 6 -8 10 -10 10 -2
0 -7 -4 -10 -10z"/>
<path d="M3111 3024 c0 -11 3 -14 6 -6 3 7 2 16 -1 19 -3 4 -6 -2 -5 -13z"/>
<path d="M2198 3008 c9 -9 15 -9 24 0 9 9 7 12 -12 12 -19 0 -21 -3 -12 -12z"/>
<path d="M3170 3000 c0 -5 5 -10 10 -10 6 0 10 5 10 10 0 6 -4 10 -10 10 -5 0
-10 -4 -10 -10z"/>
<path d="M2226 2982 c-3 -6 -1 -14 5 -17 15 -10 25 3 12 16 -7 7 -13 7 -17 1z"/>
<path d="M2007 2965 c-4 -8 -2 -17 3 -20 6 -4 10 -4 10 -1 0 2 3 11 6 20 3 9
2 16 -4 16 -5 0 -12 -7 -15 -15z"/>
<path d="M2061 2966 c-15 -8 -20 -16 -12 -20 6 -4 11 -2 11 4 0 7 6 10 13 7 8
-3 14 1 14 9 0 8 -1 14 -1 14 -1 -1 -12 -7 -25 -14z"/>
<path d="M3976 2965 c-11 -8 -15 -15 -9 -15 6 0 16 7 23 15 16 19 11 19 -14 0z"/>
<path d="M2155 2960 c-3 -5 -1 -10 4 -10 6 0 11 5 11 10 0 6 -2 10 -4 10 -3 0
-8 -4 -11 -10z"/>
<path d="M2530 2960 c-13 -8 -12 -10 3 -10 9 0 17 5 17 10 0 12 -1 12 -20 0z"/>
<path d="M4014 2948 c-11 -13 -26 -32 -34 -43 -14 -19 -14 -19 3 -6 18 14 62
71 54 71 -2 0 -12 -10 -23 -22z"/>
<path d="M3889 2933 l-24 -28 28 24 c25 23 32 31 24 31 -2 0 -14 -12 -28 -27z"/>
<path d="M1291 2924 c0 -11 3 -14 6 -6 3 7 2 16 -1 19 -3 4 -6 -2 -5 -13z"/>
<path d="M4079 2893 c-37 -41 -63 -83 -50 -83 6 0 11 4 11 8 0 5 8 17 18 28
21 22 56 74 51 74 -2 0 -16 -12 -30 -27z"/>
<path d="M2222 2880 c-18 -29 -15 -36 8 -15 20 18 26 35 12 35 -4 0 -13 -9
-20 -20z"/>
<path d="M3850 2885 c0 -8 5 -15 10 -15 6 0 10 7 10 15 0 8 -4 15 -10 15 -5 0
-10 -7 -10 -15z"/>
<path d="M3780 2880 c0 -5 5 -10 11 -10 5 0 7 5 4 10 -3 6 -8 10 -11 10 -2 0
-4 -4 -4 -10z"/>
<path d="M3996 2855 c-9 -14 -13 -25 -9 -25 10 0 36 40 30 46 -2 3 -12 -7 -21
-21z"/>
<path d="M3880 2860 c0 -5 7 -10 16 -10 8 0 12 5 9 10 -3 6 -10 10 -16 10 -5
0 -9 -4 -9 -10z"/>
<path d="M4105 2859 c-11 -17 1 -21 15 -4 8 9 8 15 2 15 -6 0 -14 -5 -17 -11z"/>
<path d="M2662 2851 c2 -7 7 -12 11 -12 12 1 9 15 -3 20 -7 2 -11 -2 -8 -8z"/>
<path d="M2758 2836 c-10 -7 -18 -17 -18 -22 0 -4 5 -3 12 4 7 7 20 12 30 12
10 0 18 5 18 10 0 14 -22 12 -42 -4z"/>
<path d="M3921 2841 c-10 -6 -10 -10 -1 -16 13 -8 24 -1 19 14 -3 6 -10 7 -18
2z"/>
<path d="M2635 2830 c3 -5 8 -10 11 -10 2 0 4 5 4 10 0 6 -5 10 -11 10 -5 0
-7 -4 -4 -10z"/>
<path d="M4117 2795 c-16 -25 -33 -45 -38 -45 -14 0 -24 31 -13 39 5 3 16 15
24 26 14 19 14 19 -5 5 -11 -8 -27 -23 -35 -34 -14 -16 -17 -17 -29 -2 -7 9
-19 16 -26 16 -8 0 -15 6 -18 13 -2 6 -8 9 -12 4 -10 -9 18 -32 68 -55 20 -9
37 -20 37 -24 0 -16 28 -8 34 10 3 9 17 34 31 55 14 20 22 37 18 37 -5 0 -21
-20 -36 -45z"/>
<path d="M2758 2783 c-14 -3 -18 -15 -18 -46 0 -30 3 -38 9 -27 6 8 8 18 5 22
-3 4 3 19 12 33 9 14 15 24 13 24 -2 -1 -12 -3 -21 -6z"/>
<path d="M4155 2770 c-10 -11 -13 -20 -7 -20 6 0 16 9 22 20 6 11 9 20 7 20
-2 0 -12 -9 -22 -20z"/>
<path d="M4200 2745 c-24 -46 -43 -56 -57 -30 -6 9 -13 11 -23 5 -12 -7 -11
-10 5 -16 11 -5 35 -18 54 -31 37 -25 51 -29 51 -13 0 6 -11 15 -24 20 l-25 9
25 47 c14 26 23 48 21 50 -2 2 -14 -16 -27 -41z"/>
<path d="M2630 2759 c0 -5 5 -7 10 -4 6 3 10 8 10 11 0 2 -4 4 -10 4 -5 0 -10
-5 -10 -11z"/>
<path d="M2918 2763 c7 -3 16 -2 19 1 4 3 -2 6 -13 5 -11 0 -14 -3 -6 -6z"/>
<path d="M2815 2740 c-3 -5 -1 -10 4 -10 6 0 11 5 11 10 0 6 -2 10 -4 10 -3 0
-8 -4 -11 -10z"/>
<path d="M2887 2733 c-10 -9 -8 -63 2 -63 4 0 6 11 3 25 -2 15 0 25 7 25 6 0
11 5 11 10 0 11 -13 13 -23 3z"/>
<path d="M4230 2711 c-7 -15 -7 -21 0 -21 12 0 25 28 17 36 -3 3 -10 -4 -17
-15z"/>
<path d="M2980 2683 c0 -9 3 -13 6 -10 4 3 15 2 25 -4 11 -5 19 -6 19 -1 0 5
-11 14 -25 20 -21 10 -25 9 -25 -5z"/>
<path d="M4600 2627 c0 -38 4 -67 10 -67 17 0 16 107 -1 125 -5 5 -9 -17 -9
-58z"/>
<path d="M4315 2669 c-4 -6 -5 -12 -2 -15 2 -3 7 2 10 11 7 17 1 20 -8 4z"/>
<path d="M4562 2625 c-1 -30 3 -55 8 -55 6 0 10 25 10 55 0 30 -4 55 -8 55 -5
0 -9 -25 -10 -55z"/>
<path d="M2968 2653 c6 -2 12 -11 12 -19 0 -9 5 -12 10 -9 13 8 -6 35 -24 34
-7 0 -6 -2 2 -6z"/>
<path d="M4246 2652 c-3 -6 -1 -14 5 -17 15 -10 25 3 12 16 -7 7 -13 7 -17 1z"/>
<path d="M1212 2633 c5 -25 28 -28 28 -4 0 12 -6 21 -16 21 -9 0 -14 -7 -12
-17z"/>
<path d="M3030 2636 c0 -9 5 -16 10 -16 6 0 10 4 10 9 0 6 -4 13 -10 16 -5 3
-10 -1 -10 -9z"/>
<path d="M4280 2625 c0 -2 26 -16 58 -30 31 -15 65 -30 74 -36 25 -13 40 -11
36 3 -3 7 -11 13 -19 13 -13 0 -67 22 -111 46 -19 10 -38 12 -38 4z"/>
<path d="M4766 2560 c0 -42 6 -76 14 -83 10 -10 11 4 6 68 -3 44 -5 81 -6 83
0 1 -4 2 -8 2 -4 0 -7 -32 -6 -70z"/>
<path d="M1701 2598 c-17 -27 -9 -33 13 -9 10 10 13 21 9 24 -5 3 -15 -3 -22
-15z"/>
<path d="M1660 2540 c0 -5 5 -10 10 -10 6 0 10 5 10 10 0 6 -4 10 -10 10 -5 0
-10 -4 -10 -10z"/>
<path d="M4600 2540 c0 -5 5 -10 11 -10 5 0 7 5 4 10 -3 6 -8 10 -11 10 -2 0
-4 -4 -4 -10z"/>
<path d="M4816 2523 c-9 -40 3 -67 15 -35 5 12 5 32 0 45 -8 21 -9 20 -15 -10z"/>
<path d="M2820 2530 c0 -5 7 -10 15 -10 8 0 15 5 15 10 0 6 -7 10 -15 10 -8 0
-15 -4 -15 -10z"/>
<path d="M3100 2525 c0 -8 7 -15 15 -15 9 0 12 6 9 15 -4 8 -10 15 -15 15 -5
0 -9 -7 -9 -15z"/>
<path d="M3050 2515 c7 -8 17 -15 22 -15 6 0 5 7 -2 15 -7 8 -17 15 -22 15 -6
0 -5 -7 2 -15z"/>
<path d="M1500 2510 c0 -5 5 -10 11 -10 5 0 7 5 4 10 -3 6 -8 10 -11 10 -2 0
-4 -4 -4 -10z"/>
<path d="M3142 2500 c0 -14 2 -19 5 -12 2 6 2 18 0 25 -3 6 -5 1 -5 -13z"/>
<path d="M2910 2446 c0 -9 5 -16 10 -16 6 0 10 4 10 9 0 6 -4 13 -10 16 -5 3
-10 -1 -10 -9z"/>
<path d="M1360 2440 c0 -5 5 -10 10 -10 6 0 10 5 10 10 0 6 -4 10 -10 10 -5 0
-10 -4 -10 -10z"/>
<path d="M2730 2431 c0 -5 5 -13 10 -16 6 -3 10 -2 10 4 0 5 -4 13 -10 16 -5
3 -10 2 -10 -4z"/>
<path d="M1054 2405 c-9 -14 -13 -29 -9 -33 4 -4 10 -1 12 6 3 6 11 12 19 12
8 0 14 6 14 14 0 27 -19 27 -36 1z"/>
<path d="M1610 2420 c0 -5 5 -10 10 -10 6 0 10 5 10 10 0 6 -4 10 -10 10 -5 0
-10 -4 -10 -10z"/>
<path d="M2875 2420 c-3 -5 -1 -10 4 -10 6 0 11 5 11 10 0 6 -2 10 -4 10 -3 0
-8 -4 -11 -10z"/>
<path d="M2675 2410 c-3 -5 -1 -10 4 -10 6 0 11 5 11 10 0 6 -2 10 -4 10 -3 0
-8 -4 -11 -10z"/>
<path d="M2987 2413 c-4 -3 -7 -11 -7 -17 0 -6 5 -5 12 2 6 6 9 14 7 17 -3 3
-9 2 -12 -2z"/>
<path d="M2756 2401 c-9 -14 18 -31 33 -22 11 7 9 11 -7 20 -12 6 -23 7 -26 2z"/>
<path d="M2852 2388 c6 -18 28 -21 28 -4 0 9 -7 16 -16 16 -9 0 -14 -5 -12
-12z"/>
<path d="M1130 2371 c0 -5 7 -11 14 -14 10 -4 13 -1 9 9 -6 15 -23 19 -23 5z"/>
<path d="M2660 2362 c0 -6 5 -14 10 -17 6 -3 10 -1 10 4 0 8 7 7 20 -1 17 -11
41 -5 28 7 -11 11 -68 17 -68 7z"/>
<path d="M2980 2359 c0 -5 5 -7 10 -4 6 3 10 8 10 11 0 2 -4 4 -10 4 -5 0 -10
-5 -10 -11z"/>
<path d="M1040 2353 c0 -7 5 -15 11 -18 6 -4 8 -13 5 -21 -6 -17 10 -19 20 -3
3 6 -3 21 -15 32 -11 12 -21 16 -21 10z"/>
<path d="M2752 2325 c-9 -19 -8 -27 4 -40 17 -17 49 -21 39 -5 -7 11 18 40 34
40 6 0 11 4 11 8 0 20 -14 20 -38 2 -13 -11 -29 -17 -35 -13 -8 5 -7 8 1 11
14 4 16 22 4 22 -5 0 -14 -11 -20 -25z"/>
<path d="M2905 2340 c4 -6 11 -8 16 -5 14 9 11 15 -7 15 -8 0 -12 -5 -9 -10z"/>
<path d="M2609 2323 c-8 -10 -14 -22 -14 -28 0 -5 -10 -11 -22 -13 -18 -3 -23
2 -23 17 0 12 -4 21 -9 21 -12 0 -8 -27 6 -41 8 -8 24 -9 50 -3 21 4 43 8 50
9 23 1 26 15 8 35 -22 24 -27 25 -46 3z"/>
<path d="M2960 2321 c0 -5 7 -12 16 -15 14 -5 15 -4 4 9 -14 17 -20 19 -20 6z"/>
<path d="M3010 2320 c0 -5 5 -10 11 -10 5 0 7 5 4 10 -3 6 -8 10 -11 10 -2 0
-4 -4 -4 -10z"/>
<path d="M2703 2298 c0 -13 1 -17 4 -10 8 20 22 14 16 -8 -3 -11 0 -20 6 -20
15 0 14 33 -1 48 -17 17 -24 15 -25 -10z"/>
<path d="M2950 2292 c0 -12 19 -26 26 -19 2 2 -2 10 -11 17 -9 8 -15 8 -15 2z"/>
<path d="M2495 2270 c4 -6 11 -8 16 -5 14 9 11 15 -7 15 -8 0 -12 -5 -9 -10z"/>
<path d="M2576 2245 c-3 -8 -12 -15 -21 -15 -9 0 -15 -9 -15 -21 0 -18 3 -19
15 -9 8 7 22 9 31 6 8 -3 23 1 31 10 12 12 18 12 23 3 4 -6 13 -8 19 -4 9 5 9
10 0 21 -10 13 -15 12 -35 -1 -31 -20 -37 -19 -31 5 6 23 -8 27 -17 5z"/>
<path d="M2891 2244 c0 -11 3 -14 6 -6 3 7 2 16 -1 19 -3 4 -6 -2 -5 -13z"/>
<path d="M2950 2240 c0 -5 5 -10 10 -10 6 0 10 5 10 10 0 6 -4 10 -10 10 -5 0
-10 -4 -10 -10z"/>
<path d="M2750 2220 c0 -5 5 -10 10 -10 6 0 10 5 10 10 0 6 -4 10 -10 10 -5 0
-10 -4 -10 -10z"/>
<path d="M2898 2213 c7 -3 16 -2 19 1 4 3 -2 6 -13 5 -11 0 -14 -3 -6 -6z"/>
<path d="M2422 2198 c-17 -17 -15 -29 6 -26 11 2 16 -3 14 -14 -2 -11 3 -18
13 -18 19 0 19 0 -1 38 -18 37 -16 36 -32 20z"/>
<path d="M2930 2181 c0 -6 -8 -11 -17 -12 -10 0 -13 -3 -6 -5 18 -8 49 11 34
20 -6 4 -11 2 -11 -3z"/>
<path d="M2655 2170 c-3 -5 -1 -10 4 -10 6 0 11 5 11 10 0 6 -2 10 -4 10 -3 0
-8 -4 -11 -10z"/>
<path d="M2740 2139 c0 -5 5 -7 10 -4 6 3 10 8 10 11 0 2 -4 4 -10 4 -5 0 -10
-5 -10 -11z"/>
<path d="M3015 2100 c-3 -5 3 -10 14 -10 12 0 21 5 21 10 0 6 -6 10 -14 10 -8
0 -18 -4 -21 -10z"/>
<path d="M2776 2093 c-8 -9 26 -32 48 -33 16 0 18 -6 13 -39 -4 -33 -2 -39 12
-38 27 2 21 61 -9 84 -30 23 -56 34 -64 26z"/>
<path d="M2885 2090 c-3 -5 -1 -10 4 -10 6 0 11 5 11 10 0 6 -2 10 -4 10 -3 0
-8 -4 -11 -10z"/>
<path d="M2740 2078 c0 -9 -2 -22 -3 -30 -2 -7 -2 -10 0 -5 3 4 9 5 14 1 12
-7 11 17 -1 36 -8 13 -10 13 -10 -2z"/>
<path d="M2768 1993 c7 -3 16 -2 19 1 4 3 -2 6 -13 5 -11 0 -14 -3 -6 -6z"/>
<path d="M3915 1331 c-48 -8 -65 -17 -65 -37 0 -17 -12 -18 -29 -1 -11 10 -14
10 -18 0 -3 -7 -11 -13 -19 -13 -8 0 -14 6 -15 13 0 6 -4 2 -9 -11 -9 -20 -48
-45 -75 -46 -5 -1 -18 -10 -27 -20 -10 -10 -18 -15 -18 -10 0 5 -5 1 -11 -8
-5 -10 -18 -18 -27 -18 -15 0 -58 -55 -55 -70 1 -3 -11 -5 -27 -5 -20 0 -26 4
-23 15 7 23 -36 -31 -52 -65 -7 -16 -14 -24 -14 -17 -1 7 -6 10 -12 6 -8 -5
-8 -9 1 -14 9 -6 8 -14 -5 -34 -10 -15 -13 -26 -6 -26 6 0 17 16 26 35 14 35
45 74 45 58 0 -5 -7 -19 -16 -31 -8 -12 -11 -22 -5 -22 5 0 17 10 25 22 9 12
19 18 23 14 8 -8 -72 -86 -131 -128 l-28 -21 11 21 c15 28 14 37 -3 23 -10 -9
-15 -9 -18 -1 -5 15 -128 -110 -128 -130 0 -8 -9 -28 -20 -45 -25 -38 -25 -40
4 -53 17 -7 27 -7 35 1 8 8 11 8 11 -1 0 -24 109 15 110 40 0 3 -13 11 -30 17
-16 5 -30 17 -30 25 0 14 4 14 40 0 23 -9 47 -13 57 -9 13 6 0 12 -47 24 -47
12 -66 22 -68 35 -3 15 1 18 17 13 11 -3 25 1 32 9 6 8 24 14 40 14 16 0 29 5
29 12 0 6 3 9 6 6 10 -10 98 24 114 44 9 10 33 21 55 24 22 3 68 25 103 48 51
33 69 52 93 98 16 32 29 67 29 78 0 11 6 20 14 20 8 0 22 10 30 22 l16 22 0
-21 c0 -33 17 -37 35 -9 9 14 22 23 29 20 16 -6 31 12 51 59 17 41 19 39 -50
28z m-385 -249 c0 -13 -12 -22 -22 -16 -10 6 -1 24 13 24 5 0 9 -4 9 -8z"/>
<path d="M4018 1333 c12 -2 30 -2 40 0 9 3 -1 5 -23 4 -22 0 -30 -2 -17 -4z"/>
<path d="M4043 1279 c-29 -17 -53 -33 -53 -35 0 -10 20 -2 70 31 67 43 54 46
-17 4z"/>
<path d="M3653 1258 c-23 -11 -31 -28 -13 -28 6 0 10 4 10 8 0 5 10 14 23 20
12 6 18 11 12 11 -5 0 -20 -5 -32 -11z"/>
<path d="M3849 1153 c-13 -15 -12 -15 9 -4 23 12 28 21 13 21 -5 0 -15 -7 -22
-17z"/>
<path d="M3520 1150 c-8 -5 -12 -12 -9 -15 4 -3 12 1 19 10 14 17 11 19 -10 5z"/>
<path d="M4319 1050 c-14 -4 -69 -10 -123 -14 -111 -8 -127 -12 -119 -32 3 -9
-1 -14 -11 -14 -9 0 -19 6 -22 13 -8 21 -154 -13 -229 -52 -33 -17 -56 -31
-52 -31 4 0 -5 -19 -21 -42 -16 -24 -35 -60 -43 -82 -8 -21 -20 -41 -26 -43
-7 -3 -13 -9 -13 -13 0 -5 11 -3 24 3 13 6 21 17 19 24 -6 14 6 17 31 7 9 -3
13 -11 9 -18 -3 -6 3 -3 14 7 11 9 29 17 40 17 11 0 26 7 33 15 19 23 31 18
27 -12 -3 -19 -11 -29 -31 -34 -26 -7 -135 -87 -136 -100 0 -10 54 -18 65 -10
6 4 39 18 75 31 60 23 79 24 265 24 162 1 212 -3 264 -17 35 -10 66 -16 68
-13 3 3 15 -1 27 -9 31 -22 43 -18 70 23 13 20 36 49 50 64 27 28 33 47 16 49
-5 1 -14 3 -20 4 -5 1 -12 4 -15 5 -3 1 -9 3 -14 4 -18 2 -21 13 -8 24 10 9
18 7 33 -6 10 -9 32 -18 49 -20 16 -2 33 -8 36 -14 4 -6 12 -7 18 -4 10 6 41
-15 41 -27 0 -9 -55 -4 -61 6 -4 5 -10 0 -14 -12 -3 -11 -13 -21 -22 -21 -17
0 -70 -54 -82 -85 -7 -16 -2 -22 28 -36 20 -9 74 -45 121 -80 145 -109 145
-109 226 -117 41 -5 77 -5 80 0 6 10 48 11 57 1 4 -3 2 -12 -4 -20 -8 -9 -36
-13 -88 -13 l-76 -1 29 -23 c16 -14 35 -22 43 -19 8 3 13 -2 13 -12 0 -12 4
-15 13 -8 6 5 36 11 66 12 30 2 63 6 75 11 12 4 44 11 71 14 60 9 65 11 89 54
l18 34 -35 -5 c-19 -2 -40 -8 -47 -12 -8 -5 -11 -1 -8 11 2 11 12 19 23 20 43
2 67 15 60 32 -20 48 -18 54 9 27 26 -26 28 -26 47 -9 10 9 22 14 26 11 3 -4
12 -2 20 4 10 9 17 8 28 -1 9 -7 18 -11 20 -8 11 10 -7 34 -46 61 -40 28 -83
29 -102 3 -5 -7 -11 -5 -18 7 -8 13 -15 15 -28 7 -10 -5 -21 -7 -24 -4 -4 5
-62 12 -134 17 -7 0 -13 3 -13 7 0 9 124 5 138 -4 6 -3 13 -2 17 4 4 6 11 8
16 4 16 -10 69 7 69 22 0 7 -12 21 -27 31 -48 30 -66 53 -43 53 5 0 29 -18 52
-40 49 -46 89 -51 109 -13 8 14 19 21 28 19 23 -7 71 39 71 68 0 22 4 25 29
21 22 -2 28 1 27 13 0 10 5 16 12 14 10 -2 10 2 3 16 -9 17 -15 17 -55 8 -25
-6 -46 -14 -46 -18 0 -5 -5 -8 -11 -8 -6 0 -8 9 -4 20 5 16 2 20 -19 20 -28 0
-42 15 -25 26 23 14 -164 60 -320 79 -29 3 -94 17 -145 30 -101 28 -110 29
-101 16 3 -5 20 -13 37 -16 53 -12 128 -49 128 -64 0 -8 6 -11 15 -7 8 3 31
-4 52 -16 l36 -22 15 22 c14 22 42 30 42 13 0 -6 -10 -17 -22 -25 l-22 -16 26
0 c14 0 29 -6 31 -12 4 -10 6 -10 6 0 1 6 8 12 16 12 18 0 20 -29 3 -32 -7 0
-17 -2 -23 -3 -5 -2 -19 -3 -30 -4 -18 -1 -18 -3 -4 -14 8 -7 18 -19 21 -28 5
-13 2 -16 -14 -11 -11 2 -22 11 -25 18 -3 8 -11 14 -19 14 -8 0 -14 6 -14 13
0 6 -5 4 -11 -6 -10 -17 -12 -17 -23 -2 -10 14 -28 16 -101 15 -50 -1 -107 -1
-128 0 -20 0 -47 -6 -59 -14 -18 -13 -26 -13 -53 -2 -20 9 -38 10 -46 5 -20
-13 -29 -11 -29 6 0 8 -8 15 -18 15 -10 0 -27 7 -38 15 -18 14 -18 14 7 15 32
0 54 38 33 58 -16 15 -18 32 -4 32 6 0 10 -7 10 -15 0 -9 7 -18 15 -21 8 -4
15 -14 16 -23 0 -10 2 -11 6 -3 2 6 13 12 23 12 25 0 68 69 50 80 -18 11 -3
30 23 30 41 1 -6 19 -66 26 -53 6 -56 6 -50 -15 3 -12 1 -21 -6 -21 -6 0 -11
-6 -11 -14 0 -24 -23 -24 -49 1 -20 18 -23 25 -13 35 32 32 14 38 -110 37 -68
0 -135 -4 -149 -9z m-294 -89 c-4 -15 0 -20 16 -23 12 -2 24 -8 26 -15 5 -15
-75 -5 -102 13 -19 14 -19 14 2 14 11 0 26 7 33 15 18 21 33 19 25 -4z m-85
-8 c8 -7 -24 -23 -47 -23 -24 0 -38 14 -28 31 6 9 62 4 75 -8z m10 -58 c0 -15
-34 -55 -46 -55 -20 0 -17 10 8 37 20 22 38 30 38 18z m1440 -35 c0 -9 -62
-30 -87 -30 -14 0 -26 17 -20 28 7 10 107 12 107 2z m-1370 -51 c0 -6 -6 -9
-13 -6 -17 6 -51 -19 -43 -32 6 -9 -3 -13 -67 -26 -23 -4 -34 22 -16 40 8 7
29 16 47 18 19 3 36 8 40 11 10 11 52 6 52 -5z m446 -10 c3 -6 2 -15 -4 -21
-7 -7 -14 -3 -21 11 -10 17 -9 21 3 21 8 0 18 -5 22 -11z m339 1 c-3 -5 -1
-10 4 -10 6 0 11 -6 11 -14 0 -8 6 -16 13 -19 6 -2 8 -8 4 -13 -4 -4 -16 -3
-25 2 -19 13 -29 64 -12 64 6 0 8 -4 5 -10z m75 -25 c0 -8 -7 -15 -15 -15 -8
0 -15 7 -15 15 0 8 7 15 15 15 8 0 15 -7 15 -15z m-850 -5 c0 -5 -7 -10 -15
-10 -8 0 -15 5 -15 10 0 6 7 10 15 10 8 0 15 -4 15 -10z m789 -57 c26 -25 37
-28 46 -13 9 15 28 12 22 -4 -4 -10 0 -12 14 -9 14 4 20 1 19 -8 -4 -27 0 -40
11 -33 8 4 7 9 -2 15 -11 7 -11 9 2 9 8 0 24 -6 34 -14 11 -8 24 -12 30 -9 7
2 18 -3 25 -12 10 -13 9 -15 -8 -15 -11 0 -32 4 -46 10 -14 5 -26 6 -26 1 0
-15 -43 0 -73 25 -15 13 -43 26 -62 30 -19 3 -39 12 -46 20 -6 8 -18 14 -25
14 -17 0 -18 27 -1 33 17 6 58 -13 86 -40z m391 32 c0 -8 -4 -15 -10 -15 -5 0
-10 7 -10 15 0 8 5 15 10 15 6 0 10 -7 10 -15z m-760 -29 c0 -3 -4 -8 -10 -11
-5 -3 -10 -1 -10 4 0 6 5 11 10 11 6 0 10 -2 10 -4z m610 -90 c0 -3 -4 -8 -10
-11 -5 -3 -10 -1 -10 4 0 6 5 11 10 11 6 0 10 -2 10 -4z m182 -71 c0 -14 -29
-31 -38 -22 -9 8 16 39 28 35 5 -2 10 -8 10 -13z m-145 -35 c0 -22 -4 -29 -14
-26 -7 3 -13 -1 -13 -9 0 -17 -54 -24 -69 -9 -7 7 31 44 39 39 13 -8 40 6 40
21 0 8 4 14 8 14 5 0 9 -14 9 -30z m93 10 c0 -5 -4 -10 -10 -10 -5 0 -10 5
-10 10 0 6 5 10 10 10 6 0 10 -4 10 -10z m-45 -20 c-3 -5 -11 -10 -16 -10 -6
0 -7 5 -4 10 3 6 11 10 16 10 6 0 7 -4 4 -10z m-155 -35 c0 -8 -4 -15 -9 -15
-13 0 -22 16 -14 24 11 11 23 6 23 -9z m-110 -20 c0 -8 -4 -15 -10 -15 -5 0
-10 7 -10 15 0 8 5 15 10 15 6 0 10 -7 10 -15z m60 5 c-20 -13 -40 -13 -40 0
0 6 12 10 28 10 21 0 24 -2 12 -10z m-100 -10 c0 -5 -7 -10 -16 -10 -8 0 -12
5 -9 10 3 6 10 10 16 10 5 0 9 -4 9 -10z m340 -20 c0 -5 -4 -10 -10 -10 -5 0
-10 5 -10 10 0 6 5 10 10 10 6 0 10 -4 10 -10z m-40 -12 c0 -4 -4 -8 -9 -8 -5
0 -16 -3 -25 -6 -11 -4 -16 -1 -16 10 0 11 8 15 25 14 14 -1 25 -6 25 -10z"/>
<path d="M4799 947 c-8 -7 -18 -20 -22 -29 -3 -10 -13 -18 -21 -18 -10 0 -13
-6 -9 -15 5 -14 8 -14 32 1 27 17 60 54 61 67 0 11 -23 8 -41 -6z"/>
<path d="M4841 903 c-17 -19 -31 -39 -31 -43 0 -5 20 -7 45 -6 25 2 45 -1 45
-6 0 -5 4 -7 9 -4 5 3 29 7 55 7 25 1 46 5 46 8 0 11 -20 36 -20 26 0 -6 -3
-6 -8 0 -4 6 -30 20 -59 32 l-51 21 -31 -35z"/>
<path d="M3427 872 c-53 -15 -70 -32 -36 -38 7 -1 19 -3 24 -5 6 -2 30 11 55
29 49 35 42 38 -43 14z"/>
<path d="M4677 854 c-8 -8 1 -24 13 -24 4 0 10 7 14 15 5 15 -14 21 -27 9z"/>
<path d="M5590 830 c0 -6 7 -10 15 -10 8 0 15 2 15 4 0 2 -7 6 -15 10 -8 3
-15 1 -15 -4z"/>
<path d="M5648 793 c-19 -21 -24 -33 -18 -48 13 -32 12 -35 -20 -46 -31 -11
-38 -23 -20 -34 6 -3 10 -15 10 -26 0 -10 7 -19 15 -19 8 0 15 7 15 16 0 8 4
13 9 9 5 -3 12 -1 16 5 3 5 15 10 26 10 10 0 19 6 19 13 1 23 28 50 46 43 15
-6 15 -9 -4 -29 -13 -14 -19 -30 -16 -43 3 -11 -5 -35 -20 -57 -30 -44 -31
-48 -10 -40 12 4 15 2 12 -8 -3 -8 -13 -13 -23 -11 -10 2 -21 -2 -26 -9 -6
-10 -11 -10 -22 -1 -12 10 -19 4 -42 -30 -16 -24 -22 -37 -13 -31 8 7 17 10
21 7 3 -3 19 -3 36 1 20 4 28 11 24 21 -6 17 1 18 25 3 13 -8 27 -6 57 7 l40
17 -32 9 c-18 5 -33 13 -33 18 0 17 92 15 98 -1 2 -6 14 2 27 15 20 21 24 23
27 9 2 -10 15 7 32 41 l30 58 49 -5 c43 -6 50 -4 54 13 3 11 10 20 17 20 6 1
-1 8 -17 16 -15 8 -32 12 -37 9 -5 -3 -11 -1 -14 4 -4 5 -24 12 -46 16 -22 4
-42 10 -45 15 -3 4 -21 11 -41 15 -31 5 -41 2 -65 -21 -21 -20 -29 -24 -29
-12 0 9 7 21 15 28 23 19 19 25 -32 39 -27 8 -53 16 -58 18 -6 2 -22 -9 -37
-24z m260 -85 c-2 -6 -20 -17 -39 -24 -27 -10 -29 -13 -11 -13 12 -1 22 -7 22
-16 0 -16 -25 -21 -34 -6 -3 4 -19 11 -36 14 -21 5 -28 11 -24 22 3 8 16 15
28 15 11 0 28 5 36 10 21 14 62 12 58 -2z m-77 -73 c28 -15 32 -35 7 -35 -14
0 -48 30 -48 42 0 11 7 10 41 -7z"/>
<path d="M5610 800 c0 -5 5 -10 10 -10 6 0 10 5 10 10 0 6 -4 10 -10 10 -5 0
-10 -4 -10 -10z"/>
<path d="M5535 749 c-4 -6 -5 -12 -2 -15 2 -3 7 2 10 11 7 17 1 20 -8 4z"/>
<path d="M3703 726 c-31 -15 -38 -36 -11 -36 19 0 47 25 48 43 0 9 -9 7 -37
-7z"/>
<path d="M3078 683 c0 -5 -2 -12 -2 -18 -1 -5 -14 -22 -29 -37 -28 -29 -38
-90 -16 -104 13 -8 30 16 22 30 -4 5 0 7 9 3 9 -3 21 0 28 6 7 7 5 -1 -5 -16
-27 -42 -15 -41 37 3 l46 40 -26 29 -25 30 -19 -24 c-10 -13 -18 -28 -18 -33
0 -6 -5 -14 -11 -18 -16 -9 -1 36 19 59 13 15 14 20 3 26 -8 5 -10 14 -7 20 4
6 5 11 2 11 -3 0 -7 -3 -8 -7z"/>
<path d="M6076 669 c-11 -10 -15 -19 -9 -19 5 0 18 9 28 20 23 26 6 25 -19 -1z"/>
<path d="M3155 664 c-13 -14 -14 -19 -3 -26 41 -28 45 -27 78 7 l34 35 -46 0
c-30 0 -52 -6 -63 -16z"/>
<path d="M5535 671 c-3 -5 -1 -12 5 -16 26 -16 8 -32 -40 -33 -27 0 -50 3 -50
7 0 5 -15 2 -34 -7 l-34 -15 27 -22 c44 -37 69 -46 106 -39 42 8 66 31 45 44
-8 5 -11 12 -8 15 10 10 28 -4 28 -21 0 -8 5 -12 10 -9 16 10 12 30 -10 55
-11 13 -20 29 -20 37 0 15 -16 18 -25 4z"/>
<path d="M4035 645 c-5 -1 -56 -11 -112 -21 -57 -9 -103 -21 -103 -26 0 -4 -7
-8 -15 -8 -8 0 -15 -7 -15 -15 0 -8 -6 -15 -14 -15 -8 0 -22 -3 -32 -7 -13 -5
-15 -3 -9 8 6 10 3 9 -11 -2 -10 -9 -31 -19 -46 -23 -15 -3 -33 -12 -41 -20
-8 -8 -30 -21 -51 -30 -20 -8 -36 -20 -36 -25 0 -6 -3 -10 -7 -9 -5 1 -18 -4
-30 -12 -17 -11 -19 -18 -12 -32 6 -10 14 -16 19 -13 6 4 20 -1 32 -9 12 -9
40 -16 60 -16 21 0 46 -4 56 -9 22 -12 74 -25 87 -22 28 7 98 3 104 -7 3 -6
58 -19 121 -29 183 -28 789 -23 825 7 8 7 24 10 35 7 28 -7 25 -1 -17 36 -125
111 -267 205 -365 241 -100 38 -364 70 -423 51z m-185 -55 c0 -5 -5 -10 -11
-10 -5 0 -7 5 -4 10 3 6 8 10 11 10 2 0 4 -4 4 -10z"/>
<path d="M3347 558 c-55 -72 -61 -105 -19 -110 16 -2 26 -8 24 -16 -2 -9 2
-10 16 -3 18 9 39 62 47 119 2 15 7 37 11 50 5 17 2 22 -12 22 -12 0 -38 -25
-67 -62z"/>
<path d="M5650 609 c0 -5 5 -7 10 -4 6 3 10 8 10 11 0 2 -4 4 -10 4 -5 0 -10
-5 -10 -11z"/>
<path d="M3634 595 c-24 -18 -7 -19 26 0 16 9 19 14 9 15 -8 0 -24 -7 -35 -15z"/>
<path d="M3538 546 c-28 -21 -21 -28 12 -11 17 9 30 18 30 20 0 10 -25 4 -42
-9z"/>
<path d="M3484 504 c-18 -14 -18 -15 4 -4 12 6 22 13 22 15 0 8 -5 6 -26 -11z"/>
<path d="M5431 468 c-11 -28 -8 -31 28 -33 22 -1 31 3 35 19 9 34 8 36 -24 36
-23 0 -33 -6 -39 -22z"/>
<path d="M3255 470 c-3 -5 -1 -10 4 -10 6 0 11 5 11 10 0 6 -2 10 -4 10 -3 0
-8 -4 -11 -10z"/>
<path d="M5370 459 c0 -16 -5 -20 -20 -16 -13 3 -25 -2 -35 -16 -20 -28 -21
-54 -1 -38 8 6 18 11 22 9 16 -4 74 21 74 31 0 6 -5 11 -11 11 -6 0 -9 6 -6
14 3 8 -1 17 -9 20 -9 4 -14 -1 -14 -15z"/>
</g>
</svg>
