<svg id="logo_colour_cn" xmlns="http://www.w3.org/2000/svg" xmlns:xlink="http://www.w3.org/1999/xlink" viewBox="0 0 437.39 158.28"><defs><style>.cls-1{fill:none;clip-rule:evenodd;}.cls-2{fill:#040000;}.cls-3{clip-path:url(#clip-path);}.cls-4{fill:#40b4e0;}.cls-10,.cls-11,.cls-12,.cls-13,.cls-14,.cls-15,.cls-16,.cls-17,.cls-18,.cls-19,.cls-20,.cls-21,.cls-22,.cls-23,.cls-24,.cls-25,.cls-26,.cls-27,.cls-28,.cls-29,.cls-30,.cls-31,.cls-32,.cls-33,.cls-34,.cls-35,.cls-36,.cls-37,.cls-38,.cls-39,.cls-4,.cls-40,.cls-41,.cls-42,.cls-43,.cls-44,.cls-45,.cls-46,.cls-47,.cls-49,.cls-5,.cls-50,.cls-51,.cls-52,.cls-53,.cls-6,.cls-7,.cls-8,.cls-9{fill-rule:evenodd;}.cls-5{fill:#a9e2f4;}.cls-6{fill:#daf4fb;}.cls-7{fill:#c0e8f6;}.cls-8{fill:#cdeef9;}.cls-9{fill:#83c8e7;}.cls-10{fill:#38b0de;}.cls-11{fill:#1383d7;}.cls-12{fill:#8ac9e5;}.cls-13{fill:#39abdc;}.cls-14{fill:#1083da;}.cls-15{fill:#1493d6;}.cls-16{fill:#2da7dc;}.cls-17{fill:#84d5e9;}.cls-18{fill:#2ba8dd;}.cls-19{fill:#69c3ee;}.cls-20{fill:#0061c8;}.cls-21{fill:#53c4e8;}.cls-22{fill:#0073d8;}.cls-23{fill:#abd8ed;}.cls-24{fill:#27a0d8;}.cls-25{fill:#0170cf;}.cls-26{fill:#198cdf;}.cls-27{fill:#1181d9;}.cls-28{fill:#0056b8;}.cls-29{fill:#8ad8ed;}.cls-30{fill:#0070d4;}.cls-31{fill:#189ad8;}.cls-32{fill:#75cde5;}.cls-33{fill:#0070d6;}.cls-34{fill:#1495d7;}.cls-35{fill:#6dc8e2;}.cls-36{fill:#3fb3e0;}.cls-37{fill:#3db5e0;}.cls-38{fill:#35abda;}.cls-39{fill:#0d96e5;}.cls-40{fill:#78c4e5;}.cls-41{fill:#62c4e2;}.cls-42{fill:#239ad9;}.cls-43{fill:#1b9ed8;}.cls-44{fill:#42bce4;}.cls-45{fill:#84c9e8;}.cls-46{fill:#1fa0d6;}.cls-47{fill:#006cd1;}.cls-48{clip-path:url(#clip-path-2);}.cls-49{fill:#27a5df;}.cls-50{fill:#83d4e9;}.cls-51{fill:#0192e5;}.cls-52{fill:#8ecce6;}.cls-53{fill:#005ec6;}</style><clipPath id="clip-path" transform="translate(-148.09 -760.65)"><polygon class="cls-1" points="298.96 843.3 277.26 896.53 223.47 918.92 170.32 896.91 148.09 843.09 170.08 790.01 223.85 767.68 276.9 789.85 223.65 843.26 298.96 843.3"/></clipPath><clipPath id="clip-path-2" transform="translate(-148.09 -760.65)"><polygon class="cls-1" points="295.73 782.73 317.51 836.27 242.39 836.24 295.73 782.73"/></clipPath></defs><title>logo_colour_cn</title><path class="cls-2" d="M364.39,827.65V813.1H344.67v14.42h-4.6v-19h24.32v-3.12H338.22v-4.6h56.87v4.6H369v3.12h24.26v19h-4.6V813.1H369v14.55Zm28.85,2.94v25.34H340.07V830.59Zm-48.57,4.59v6h19.72v-6Zm0,16.15h19.72v-5.55H344.67Zm10.46-28.85-4.85-4.85,3.26-3.25,4.79,4.91Zm0,6.83-4.85-4.79,3.26-3.25,4.79,4.85Zm33.51,5.87H369v6h19.66Zm0,16.15v-5.55H369v5.55Zm-8.81-28.85L375,817.63l3.26-3.25,4.79,4.91Zm0,6.83L375,824.52l3.26-3.25,4.79,4.85Z" transform="translate(-148.09 -760.65)"/><path class="cls-2" d="M458.72,810.16H411.81v37.92l-5.74,8.17-3.77-2.68,4.92-7v-41h24.19v-5.94H436v5.94h22.72Zm-42.63,24.58h38.8v7.91l-12.31,4.21,15.51,4.92-1.41,4.34-21.44-6.77-20.05,6.77-1.53-4.34L427.83,847l-10.72-3.44,1.34-4.22h-2.36Zm-1-18.19h6.12v-4h4.6v4h21v-4h4.59v4h6.13v4.59h-6.13V831H421.19v-9.83h-6.12Zm35.23,22.78H418.78l16.39,5.17Zm-3.51-13v-5.24h-21v5.24Z" transform="translate(-148.09 -760.65)"/><path class="cls-2" d="M508.83,851.2h6.51V805.38h-42v50.29h-4.6V800.78h51.19v55h-11.1Zm-28.62-39.88L485,822l4.34-10.65,4.22,1.73-5.95,14.67,7.19,15.78-4.22,1.65-5.26-11.63-4.66,11.63-4.22-1.72,6.26-15.65-6.54-14.48Zm19.11,0,4.59,10.53,4.42-10.52,4.21,1.73-6.07,14.54,6.93,15.71-4.21,1.85L504,833.46l-4.84,11.75L495,843.49l6.5-15.77L495.1,813.1Z" transform="translate(-148.09 -760.65)"/><path class="cls-2" d="M548.14,841.38H530.91v-5l8.23-13.72h-8.23v-5.17l9.26-17,4,2.17L535.83,818h6.06l2.68-4.4,3.89,2.43L536,836.78h12.12Zm12.64-41.75v3.51h21.13v7l-10.72,8.11,14.29,10.47-2.74,3.7-15.38-11.3-15,11.3-2.75-3.7,13.85-10.47-7.27-5.36-2.3,3.38-3.77-2.55,6.07-8.94v-5.17ZM581.33,834v22H553.82V834Zm-22.91,4.6v12.76h18.32V838.57Zm18.89-30.7v-.13H559.7l-1,1.4,8.55,6.26Z" transform="translate(-148.09 -760.65)"/><path class="cls-2" d="M355.66,877.17H342.83v9.1H353v-5.12h2.68v4.16a3.52,3.52,0,0,1-.68,2.51,3.75,3.75,0,0,1-2.59.67h-9.09a3.75,3.75,0,0,1-2.59-.67,3.52,3.52,0,0,1-.68-2.51v-7.06a3.53,3.53,0,0,1,.68-2.5,3.7,3.7,0,0,1,2.59-.67h12.33Z" transform="translate(-148.09 -760.65)"/><path class="cls-2" d="M378.93,888.49V875.08h13.49v2.28h-11v3h10.88v2.29H381.4V886h11.14v2.53Z" transform="translate(-148.09 -760.65)"/><path class="cls-2" d="M413.74,888.44V875.08h2.48l7.11,10.85,7-10.85h2.46v13.36H430s0-8.76,0-9.06c-.17.35-5.76,9.06-5.76,9.06h-1.81s-6.23-8.84-6.31-9.05c0,.28.07,9.05.07,9.05Z" transform="translate(-148.09 -760.65)"/><path class="cls-2" d="M454.17,888.49V875.08h11.27a3.42,3.42,0,0,1,2.27.61,2.51,2.51,0,0,1,.71,2v3a2.48,2.48,0,0,1-.71,2,3.42,3.42,0,0,1-2.27.62h-8.56v5.23Zm9.91-11.09h-7.2V881h7.2a1.8,1.8,0,0,0,1.09-.24,1,1,0,0,0,.29-.83v-1.43a1,1,0,0,0-.29-.82A1.89,1.89,0,0,0,464.08,877.4Z" transform="translate(-148.09 -760.65)"/><path class="cls-2" d="M493.23,878.25a3.58,3.58,0,0,1,.67-2.5,3.73,3.73,0,0,1,2.6-.67h9.7a3.7,3.7,0,0,1,2.59.67,3.53,3.53,0,0,1,.67,2.5v7.06a3.53,3.53,0,0,1-.67,2.51,3.75,3.75,0,0,1-2.59.67h-9.7a3.78,3.78,0,0,1-2.6-.67,3.58,3.58,0,0,1-.67-2.51ZM496,886h10.71v-8.49H496Z" transform="translate(-148.09 -760.65)"/><path class="cls-2" d="M530.58,888.49V875.08h2.77V886h10.19v2.53Z" transform="translate(-148.09 -760.65)"/><path class="cls-2" d="M568.39,888.49V875.08h2.77V886h10.18v2.53Z" transform="translate(-148.09 -760.65)"/><polygon class="cls-2" points="398.31 84.83 383.8 86.85 388.21 94.94 398.31 84.83"/><g class="cls-3"><polygon class="cls-4" points="22.23 136.26 0 82.44 21.99 29.36 75.76 7.03 128.89 29.11 150.87 82.65 129.17 135.88 75.37 158.27 22.23 136.26"/><path class="cls-5" d="M223.65,843.26l-15.73,38.06,15.41,6.39Z" transform="translate(-148.09 -760.65)"/><path class="cls-6" d="M223.65,843.26,239.31,881l-16,6.74Z" transform="translate(-148.09 -760.65)"/><path class="cls-7" d="M223.65,843.26,239.31,881l16-6.7Z" transform="translate(-148.09 -760.65)"/><path class="cls-8" d="M223.65,843.26l38,15.85-6.38,15.23Z" transform="translate(-148.09 -760.65)"/><path class="cls-5" d="M223.65,843.26l38,15.85L268,843.3Z" transform="translate(-148.09 -760.65)"/><path class="cls-8" d="M223.65,843.26l15.79-38L255,811.86Z" transform="translate(-148.09 -760.65)"/><path class="cls-5" d="M223.65,843.26l15.79-38L224,798.91Z" transform="translate(-148.09 -760.65)"/><path class="cls-6" d="M223.66,843.28,208.1,805.55l16-6.69Z" transform="translate(-148.09 -760.65)"/><path class="cls-7" d="M223.65,843.26,208.1,805.55l-16,6.65Z" transform="translate(-148.09 -760.65)"/><path class="cls-8" d="M223.65,843.26l-38-15.63,6.39-15.43Z" transform="translate(-148.09 -760.65)"/><path class="cls-5" d="M223.65,843.26l-38-15.65-6.43,15.49Z" transform="translate(-148.09 -760.65)"/><path class="cls-6" d="M223.65,843.26,186,859l-6.79-15.91Z" transform="translate(-148.09 -760.65)"/><path class="cls-7" d="M223.65,843.26,186,859l6.51,15.91Z" transform="translate(-148.09 -760.65)"/><path class="cls-8" d="M223.65,843.26l-15.7,38-15.39-6.38Z" transform="translate(-148.09 -760.65)"/><path class="cls-9" d="M223.33,887.71l-15.41-6.39-6.42,15.49Z" transform="translate(-148.09 -760.65)"/><path class="cls-10" d="M223.47,918.92l-21.94-22.1-7,16.76Z" transform="translate(-148.09 -760.65)"/><path class="cls-11" d="M223.33,887.71l-21.8,9.11,21.94,22.1Z" transform="translate(-148.09 -760.65)"/><path class="cls-12" d="M223.33,887.71l.14,31.22L245.92,897Z" transform="translate(-148.09 -760.65)"/><path class="cls-13" d="M223.33,887.71l16-6.68,6.6,16Z" transform="translate(-148.09 -760.65)"/><path class="cls-14" d="M223.47,918.92,245.92,897l6.72,16.18Z" transform="translate(-148.09 -760.65)"/><path class="cls-15" d="M255.29,874.34l6.38-15.23,15.46,6.41Z" transform="translate(-148.09 -760.65)"/><path class="cls-16" d="M277.26,896.53l-.13-31,16.84,7Z" transform="translate(-148.09 -760.65)"/><path class="cls-17" d="M255.29,874.34l21.84-8.82.13,31Z" transform="translate(-148.09 -760.65)"/><path class="cls-18" d="M255.29,874.34l22,22.19-31.34.49Z" transform="translate(-148.09 -760.65)"/><path class="cls-19" d="M255.29,874.34l-16,6.68,6.62,16Z" transform="translate(-148.09 -760.65)"/><path class="cls-20" d="M277.26,896.53l-31.34.49,6.72,16.18Z" transform="translate(-148.09 -760.65)"/><path class="cls-21" d="M268,843.3l-6.34,15.81,15.46,6.41Z" transform="translate(-148.09 -760.65)"/><path class="cls-22" d="M299,843.3l-21.83,22.22,16.56,6.86Z" transform="translate(-148.09 -760.65)"/><path class="cls-23" d="M268,843.3l9.12,22.22L299,843.3Z" transform="translate(-148.09 -760.65)"/><path class="cls-24" d="M255,811.86l-15.57-6.59,6.47-15.46Z" transform="translate(-148.09 -760.65)"/><path class="cls-25" d="M277,789.76l-31.14,0,6.9-16.81Z" transform="translate(-148.09 -760.65)"/><path class="cls-26" d="M255,811.86l-9.1-22.05,31.14,0Z" transform="translate(-148.09 -760.65)"/><path class="cls-27" d="M224,798.91l15.41,6.38,6.41-15.48Z" transform="translate(-148.09 -760.65)"/><path class="cls-28" d="M223.85,767.68l22,22.13,7-16.79Z" transform="translate(-148.09 -760.65)"/><path class="cls-16" d="M224,799l21.87-9.15-22-22.13Z" transform="translate(-148.09 -760.65)"/><path class="cls-29" d="M224,798.9l-.16-31.22-22.36,21.9Z" transform="translate(-148.09 -760.65)"/><path class="cls-30" d="M224.15,798.91l-16.05,6.64-6.53-16Z" transform="translate(-148.09 -760.65)"/><path class="cls-31" d="M223.85,767.68l-22.36,21.9-6.77-16.1Z" transform="translate(-148.09 -760.65)"/><path class="cls-32" d="M192.05,812.2l-6.39,15.43-15.44-6.53Z" transform="translate(-148.09 -760.65)"/><path class="cls-33" d="M170.08,790l.14,31.09-16.83-6.84Z" transform="translate(-148.09 -760.65)"/><path class="cls-34" d="M192.05,812.2l-21.88,8.87L170,790Z" transform="translate(-148.09 -760.65)"/><path class="cls-35" d="M192.05,812.2l-22-22.19,31.41-.43Z" transform="translate(-148.09 -760.65)"/><path class="cls-36" d="M192.05,812.2l16-6.65-6.59-16Z" transform="translate(-148.09 -760.65)"/><path class="cls-37" d="M170.08,790l31.41-.43-6.77-16.1Z" transform="translate(-148.09 -760.65)"/><path class="cls-38" d="M179.25,843.1l6.41-15.47-15.44-6.53Z" transform="translate(-148.09 -760.65)"/><path class="cls-39" d="M148.09,843.09l22.13-22-16.78-7Z" transform="translate(-148.09 -760.65)"/><path class="cls-40" d="M179.25,843.1l-9-22-22.13,22Z" transform="translate(-148.09 -760.65)"/><path class="cls-38" d="M179.25,843.1H148.09l21.85,22.49Z" transform="translate(-148.09 -760.65)"/><path class="cls-41" d="M179.25,843.1,186,859l-16.08,6.55Z" transform="translate(-148.09 -760.65)"/><path class="cls-42" d="M148.09,843.09l21.85,22.49-16.12,6.63Z" transform="translate(-148.09 -760.65)"/><path class="cls-43" d="M192.53,875l15.41,6.38-6.41,15.49Z" transform="translate(-148.09 -760.65)"/><path class="cls-20" d="M170.32,896.91l31.21-.09-7,16.87Z" transform="translate(-148.09 -760.65)"/><path class="cls-44" d="M192.53,875l9,21.87-31.21.09Z" transform="translate(-148.09 -760.65)"/><path class="cls-45" d="M192.53,875l-22.21,22-.38-31.33Z" transform="translate(-148.09 -760.65)"/><path class="cls-46" d="M192.53,875,186,859l-16.08,6.55Z" transform="translate(-148.09 -760.65)"/><path class="cls-47" d="M170.32,896.91l-.38-31.33-16.12,6.63Z" transform="translate(-148.09 -760.65)"/></g><g class="cls-48"><polygon class="cls-4" points="40.38 129.23 18.16 75.42 40.14 22.34 93.92 0 147.05 22.08 169.02 75.62 147.32 128.85 93.53 151.25 40.38 129.23"/><path class="cls-6" d="M242.39,836.24l37.68-15.59,6.62,15.62Z" transform="translate(-148.09 -760.65)"/><path class="cls-7" d="M242.39,836.24l37.69-15.59-6.49-15.71Z" transform="translate(-148.09 -760.65)"/><path class="cls-49" d="M286.69,836.27h30.82L296.06,814Z" transform="translate(-148.09 -760.65)"/><path class="cls-50" d="M286.69,836.27l-6.63-15.55,16-6.63Z" transform="translate(-148.09 -760.65)"/><path class="cls-51" d="M317.51,836.27,296.06,814l15.84-7Z" transform="translate(-148.09 -760.65)"/><path class="cls-52" d="M273.59,804.94l22.14-22.21.33,31.3Z" transform="translate(-148.09 -760.65)"/><path class="cls-36" d="M273.59,804.94l6.48,15.71,16-6.62Z" transform="translate(-148.09 -760.65)"/><path class="cls-53" d="M295.73,782.73l.33,31.3,16.17-6.6Z" transform="translate(-148.09 -760.65)"/></g></svg>